# Irregular lake/puddle mesh — flat on XZ plane, normals +Y
o LakePuddle
v 0.00000 0.00000 0.00000
v 0.37867 0.00000 0.00000
v 0.37263 0.00000 0.03260
v 0.36617 0.00000 0.06457
v 0.35880 0.00000 0.09614
v 0.33935 0.00000 0.12351
v 0.32869 0.00000 0.15327
v 0.32007 0.00000 0.18479
v 0.30791 0.00000 0.21560
v 0.28571 0.00000 0.23974
v 0.26122 0.00000 0.26122
v 0.23859 0.00000 0.28434
v 0.20250 0.00000 0.28919
v 0.17646 0.00000 0.30563
v 0.14242 0.00000 0.30541
v 0.11182 0.00000 0.30723
v 0.08283 0.00000 0.30913
v 0.05510 0.00000 0.31250
v 0.02783 0.00000 0.31804
v 0.00000 0.00000 0.30834
v -0.02687 0.00000 0.30710
v -0.05260 0.00000 0.29833
v -0.07570 0.00000 0.28253
v -0.09782 0.00000 0.26875
v -0.11474 0.00000 0.24606
v -0.13115 0.00000 0.22717
v -0.14610 0.00000 0.20865
v -0.16100 0.00000 0.19187
v -0.16773 0.00000 0.16773
v -0.17202 0.00000 0.14434
v -0.17663 0.00000 0.12368
v -0.17542 0.00000 0.10128
v -0.17344 0.00000 0.08088
v -0.18003 0.00000 0.06553
v -0.18442 0.00000 0.04942
v -0.18995 0.00000 0.03349
v -0.20926 0.00000 0.01831
v -0.22774 0.00000 0.00000
v -0.25120 0.00000 -0.02198
v -0.26616 0.00000 -0.04693
v -0.27204 0.00000 -0.07289
v -0.28252 0.00000 -0.10283
v -0.26864 0.00000 -0.12527
v -0.26005 0.00000 -0.15014
v -0.24663 0.00000 -0.17269
v -0.22175 0.00000 -0.18607
v -0.20382 0.00000 -0.20382
v -0.17904 0.00000 -0.21337
v -0.16135 0.00000 -0.23043
v -0.13875 0.00000 -0.24033
v -0.11363 0.00000 -0.24369
v -0.09011 0.00000 -0.24757
v -0.06359 0.00000 -0.23734
v -0.04110 0.00000 -0.23307
v -0.01930 0.00000 -0.22059
v -0.00000 0.00000 -0.20800
v 0.01705 0.00000 -0.19484
v 0.03337 0.00000 -0.18925
v 0.04900 0.00000 -0.18287
v 0.06282 0.00000 -0.17260
v 0.07984 0.00000 -0.17122
v 0.09421 0.00000 -0.16318
v 0.11773 0.00000 -0.16814
v 0.13997 0.00000 -0.16682
v 0.16873 0.00000 -0.16873
v 0.19723 0.00000 -0.16550
v 0.22558 0.00000 -0.15795
v 0.26178 0.00000 -0.15114
v 0.29988 0.00000 -0.13984
v 0.32532 0.00000 -0.11841
v 0.35618 0.00000 -0.09544
v 0.37085 0.00000 -0.06539
v 0.37898 0.00000 -0.03316
v 0.68255 0.00000 0.00000
v 0.67166 0.00000 0.05876
v 0.66002 0.00000 0.11638
v 0.64674 0.00000 0.17329
v 0.61169 0.00000 0.22264
v 0.59246 0.00000 0.27627
v 0.57692 0.00000 0.33308
v 0.55501 0.00000 0.38862
v 0.51499 0.00000 0.43213
v 0.47085 0.00000 0.47085
v 0.43006 0.00000 0.51252
v 0.36500 0.00000 0.52127
v 0.31806 0.00000 0.55090
v 0.25671 0.00000 0.55051
v 0.20156 0.00000 0.55378
v 0.14930 0.00000 0.55721
v 0.09932 0.00000 0.56329
v 0.05015 0.00000 0.57327
v 0.00000 0.00000 0.55578
v -0.04843 0.00000 0.55355
v -0.09482 0.00000 0.53774
v -0.13645 0.00000 0.50926
v -0.17631 0.00000 0.48441
v -0.20682 0.00000 0.44353
v -0.23641 0.00000 0.40947
v -0.26335 0.00000 0.37610
v -0.29019 0.00000 0.34584
v -0.30234 0.00000 0.30234
v -0.31007 0.00000 0.26018
v -0.31837 0.00000 0.22293
v -0.31619 0.00000 0.18255
v -0.31262 0.00000 0.14578
v -0.32451 0.00000 0.11811
v -0.33242 0.00000 0.08907
v -0.34238 0.00000 0.06037
v -0.37719 0.00000 0.03300
v -0.41050 0.00000 0.00000
v -0.45280 0.00000 -0.03961
v -0.47975 0.00000 -0.08459
v -0.49035 0.00000 -0.13139
v -0.50925 0.00000 -0.18535
v -0.48423 0.00000 -0.22580
v -0.46875 0.00000 -0.27063
v -0.44456 0.00000 -0.31128
v -0.39971 0.00000 -0.33540
v -0.36738 0.00000 -0.36738
v -0.32272 0.00000 -0.38460
v -0.29083 0.00000 -0.41534
v -0.25010 0.00000 -0.43319
v -0.20483 0.00000 -0.43925
v -0.16242 0.00000 -0.44624
v -0.11463 0.00000 -0.42780
v -0.07408 0.00000 -0.42010
v -0.03479 0.00000 -0.39762
v -0.00000 0.00000 -0.37492
v 0.03073 0.00000 -0.35119
v 0.06015 0.00000 -0.34112
v 0.08832 0.00000 -0.32963
v 0.11323 0.00000 -0.31110
v 0.14391 0.00000 -0.30862
v 0.16982 0.00000 -0.29414
v 0.21221 0.00000 -0.30307
v 0.25230 0.00000 -0.30068
v 0.30414 0.00000 -0.30414
v 0.35551 0.00000 -0.29831
v 0.40660 0.00000 -0.28471
v 0.47186 0.00000 -0.27243
v 0.54054 0.00000 -0.25206
v 0.58638 0.00000 -0.21343
v 0.64202 0.00000 -0.17203
v 0.66845 0.00000 -0.11787
v 0.68312 0.00000 -0.05977
v 0.96342 0.00000 0.00000
v 0.94804 0.00000 0.08294
v 0.93161 0.00000 0.16427
v 0.91287 0.00000 0.24460
v 0.86339 0.00000 0.31425
v 0.83625 0.00000 0.38995
v 0.81432 0.00000 0.47015
v 0.78339 0.00000 0.54853
v 0.72690 0.00000 0.60994
v 0.66459 0.00000 0.66459
v 0.60702 0.00000 0.72342
v 0.51519 0.00000 0.73577
v 0.44894 0.00000 0.77759
v 0.36234 0.00000 0.77704
v 0.28450 0.00000 0.78165
v 0.21074 0.00000 0.78649
v 0.14019 0.00000 0.79507
v 0.07079 0.00000 0.80917
v 0.00000 0.00000 0.78448
v -0.06836 0.00000 0.78133
v -0.13383 0.00000 0.75901
v -0.19260 0.00000 0.71881
v -0.24886 0.00000 0.68375
v -0.29193 0.00000 0.62604
v -0.33369 0.00000 0.57796
v -0.37171 0.00000 0.53086
v -0.40961 0.00000 0.48815
v -0.42675 0.00000 0.42675
v -0.43766 0.00000 0.36724
v -0.44938 0.00000 0.31466
v -0.44630 0.00000 0.25767
v -0.44126 0.00000 0.20576
v -0.45805 0.00000 0.16672
v -0.46921 0.00000 0.12572
v -0.48326 0.00000 0.08521
v -0.53240 0.00000 0.04658
v -0.57942 0.00000 0.00000
v -0.63912 0.00000 -0.05592
v -0.67716 0.00000 -0.11940
v -0.69212 0.00000 -0.18545
v -0.71880 0.00000 -0.26162
v -0.68348 0.00000 -0.31871
v -0.66163 0.00000 -0.38199
v -0.62749 0.00000 -0.43937
v -0.56419 0.00000 -0.47341
v -0.51855 0.00000 -0.51855
v -0.45551 0.00000 -0.54286
v -0.41050 0.00000 -0.58625
v -0.35302 0.00000 -0.61145
v -0.28911 0.00000 -0.62000
v -0.22925 0.00000 -0.62987
v -0.16180 0.00000 -0.60384
v -0.10456 0.00000 -0.59297
v -0.04910 0.00000 -0.56123
v -0.00000 0.00000 -0.52919
v 0.04337 0.00000 -0.49571
v 0.08490 0.00000 -0.48149
v 0.12467 0.00000 -0.46527
v 0.15983 0.00000 -0.43912
v 0.20313 0.00000 -0.43562
v 0.23970 0.00000 -0.41517
v 0.29953 0.00000 -0.42778
v 0.35612 0.00000 -0.42441
v 0.42929 0.00000 -0.42929
v 0.50180 0.00000 -0.42106
v 0.57391 0.00000 -0.40186
v 0.66602 0.00000 -0.38453
v 0.76296 0.00000 -0.35577
v 0.82767 0.00000 -0.30125
v 0.90620 0.00000 -0.24282
v 0.94351 0.00000 -0.16637
v 0.96421 0.00000 -0.08436
v 1.23031 0.00000 0.00000
v 1.21067 0.00000 0.10592
v 1.18969 0.00000 0.20977
v 1.16575 0.00000 0.31236
v 1.10256 0.00000 0.40130
v 1.06790 0.00000 0.49797
v 1.03990 0.00000 0.60039
v 1.00040 0.00000 0.70049
v 0.92827 0.00000 0.77891
v 0.84870 0.00000 0.84870
v 0.77518 0.00000 0.92382
v 0.65791 0.00000 0.93959
v 0.57331 0.00000 0.99299
v 0.46272 0.00000 0.99230
v 0.36331 0.00000 0.99818
v 0.26912 0.00000 1.00437
v 0.17903 0.00000 1.01533
v 0.09040 0.00000 1.03332
v 0.00000 0.00000 1.00180
v -0.08729 0.00000 0.99778
v -0.17091 0.00000 0.96927
v -0.24596 0.00000 0.91794
v -0.31780 0.00000 0.87316
v -0.37280 0.00000 0.79946
v -0.42612 0.00000 0.73807
v -0.47468 0.00000 0.67792
v -0.52307 0.00000 0.62338
v -0.54497 0.00000 0.54497
v -0.55890 0.00000 0.46897
v -0.57387 0.00000 0.40183
v -0.56993 0.00000 0.32905
v -0.56350 0.00000 0.26277
v -0.58494 0.00000 0.21290
v -0.59919 0.00000 0.16055
v -0.61714 0.00000 0.10882
v -0.67989 0.00000 0.05948
v -0.73993 0.00000 0.00000
v -0.81616 0.00000 -0.07141
v -0.86475 0.00000 -0.15248
v -0.88385 0.00000 -0.23683
v -0.91792 0.00000 -0.33409
v -0.87282 0.00000 -0.40700
v -0.84492 0.00000 -0.48781
v -0.80131 0.00000 -0.56109
v -0.72048 0.00000 -0.60456
v -0.66220 0.00000 -0.66220
v -0.58170 0.00000 -0.69324
v -0.52421 0.00000 -0.74866
v -0.45081 0.00000 -0.78083
v -0.36920 0.00000 -0.79175
v -0.29276 0.00000 -0.80435
v -0.20662 0.00000 -0.77111
v -0.13352 0.00000 -0.75724
v -0.06270 0.00000 -0.71671
v -0.00000 0.00000 -0.67579
v 0.05538 0.00000 -0.63303
v 0.10842 0.00000 -0.61487
v 0.15920 0.00000 -0.59416
v 0.20410 0.00000 -0.56076
v 0.25940 0.00000 -0.55630
v 0.30610 0.00000 -0.53019
v 0.38251 0.00000 -0.54628
v 0.45478 0.00000 -0.54198
v 0.54821 0.00000 -0.54821
v 0.64081 0.00000 -0.53771
v 0.73290 0.00000 -0.51318
v 0.85052 0.00000 -0.49105
v 0.97432 0.00000 -0.45433
v 1.05695 0.00000 -0.38470
v 1.15724 0.00000 -0.31008
v 1.20488 0.00000 -0.21245
v 1.23132 0.00000 -0.10773
v 1.48726 0.00000 0.00000
v 1.46352 0.00000 0.12804
v 1.43815 0.00000 0.25359
v 1.40922 0.00000 0.37760
v 1.33284 0.00000 0.48511
v 1.29094 0.00000 0.60197
v 1.25708 0.00000 0.72578
v 1.20934 0.00000 0.84679
v 1.12214 0.00000 0.94159
v 1.02596 0.00000 1.02596
v 0.93708 0.00000 1.11677
v 0.79532 0.00000 1.13583
v 0.69304 0.00000 1.20038
v 0.55935 0.00000 1.19954
v 0.43919 0.00000 1.20666
v 0.32533 0.00000 1.21413
v 0.21642 0.00000 1.22738
v 0.10929 0.00000 1.24914
v 0.00000 0.00000 1.21103
v -0.10553 0.00000 1.20617
v -0.20660 0.00000 1.17171
v -0.29733 0.00000 1.10965
v -0.38418 0.00000 1.05552
v -0.45065 0.00000 0.96643
v -0.51512 0.00000 0.89221
v -0.57382 0.00000 0.81950
v -0.63232 0.00000 0.75357
v -0.65879 0.00000 0.65879
v -0.67563 0.00000 0.56692
v -0.69372 0.00000 0.48575
v -0.68896 0.00000 0.39777
v -0.68119 0.00000 0.31765
v -0.70710 0.00000 0.25736
v -0.72433 0.00000 0.19408
v -0.74603 0.00000 0.13155
v -0.82189 0.00000 0.07191
v -0.89446 0.00000 0.00000
v -0.98662 0.00000 -0.08632
v -1.04536 0.00000 -0.18432
v -1.06844 0.00000 -0.28629
v -1.10963 0.00000 -0.40387
v -1.05512 0.00000 -0.49201
v -1.02138 0.00000 -0.58970
v -0.96867 0.00000 -0.67827
v -0.87096 0.00000 -0.73082
v -0.80050 0.00000 -0.80050
v -0.70319 0.00000 -0.83803
v -0.63370 0.00000 -0.90502
v -0.54497 0.00000 -0.94391
v -0.44631 0.00000 -0.95711
v -0.35390 0.00000 -0.97235
v -0.24977 0.00000 -0.93216
v -0.16141 0.00000 -0.91539
v -0.07580 0.00000 -0.86639
v -0.00000 0.00000 -0.81693
v 0.06695 0.00000 -0.76524
v 0.13106 0.00000 -0.74329
v 0.19245 0.00000 -0.71825
v 0.24673 0.00000 -0.67788
v 0.31358 0.00000 -0.67248
v 0.37003 0.00000 -0.64092
v 0.46240 0.00000 -0.66037
v 0.54976 0.00000 -0.65518
v 0.66271 0.00000 -0.66271
v 0.77465 0.00000 -0.65001
v 0.88597 0.00000 -0.62036
v 1.02816 0.00000 -0.59361
v 1.17780 0.00000 -0.54922
v 1.27770 0.00000 -0.46504
v 1.39893 0.00000 -0.37484
v 1.45653 0.00000 -0.25682
v 1.48849 0.00000 -0.13023
v 1.73656 0.00000 0.00000
v 1.70884 0.00000 0.14950
v 1.67923 0.00000 0.29609
v 1.64545 0.00000 0.44090
v 1.55626 0.00000 0.56643
v 1.50734 0.00000 0.70288
v 1.46780 0.00000 0.84744
v 1.41206 0.00000 0.98873
v 1.31024 0.00000 1.09942
v 1.19793 0.00000 1.19793
v 1.09416 0.00000 1.30397
v 0.92863 0.00000 1.32623
v 0.80921 0.00000 1.40160
v 0.65312 0.00000 1.40061
v 0.51281 0.00000 1.40893
v 0.37986 0.00000 1.41766
v 0.25270 0.00000 1.43312
v 0.12760 0.00000 1.45853
v 0.00000 0.00000 1.41403
v -0.12322 0.00000 1.40836
v -0.24124 0.00000 1.36812
v -0.34717 0.00000 1.29566
v -0.44858 0.00000 1.23245
v -0.52620 0.00000 1.12843
v -0.60147 0.00000 1.04177
v -0.67001 0.00000 0.95687
v -0.73831 0.00000 0.87989
v -0.76922 0.00000 0.76922
v -0.78888 0.00000 0.66195
v -0.81001 0.00000 0.56717
v -0.80445 0.00000 0.46445
v -0.79538 0.00000 0.37089
v -0.82563 0.00000 0.30050
v -0.84575 0.00000 0.22662
v -0.87108 0.00000 0.15360
v -0.95966 0.00000 0.08396
v -1.04440 0.00000 0.00000
v -1.15201 0.00000 -0.10079
v -1.22059 0.00000 -0.21522
v -1.24754 0.00000 -0.33428
v -1.29563 0.00000 -0.47157
v -1.23198 0.00000 -0.57448
v -1.19259 0.00000 -0.68854
v -1.13105 0.00000 -0.79197
v -1.01695 0.00000 -0.85332
v -0.93469 0.00000 -0.93469
v -0.82106 0.00000 -0.97850
v -0.73992 0.00000 -1.05672
v -0.63632 0.00000 -1.10214
v -0.52112 0.00000 -1.11755
v -0.41323 0.00000 -1.13534
v -0.29164 0.00000 -1.08842
v -0.18846 0.00000 -1.06883
v -0.08851 0.00000 -1.01162
v -0.00000 0.00000 -0.95387
v 0.07817 0.00000 -0.89351
v 0.15303 0.00000 -0.86789
v 0.22471 0.00000 -0.83864
v 0.28809 0.00000 -0.79151
v 0.36615 0.00000 -0.78521
v 0.43206 0.00000 -0.74835
v 0.53991 0.00000 -0.77107
v 0.64192 0.00000 -0.76500
v 0.77379 0.00000 -0.77379
v 0.90450 0.00000 -0.75897
v 1.03448 0.00000 -0.72435
v 1.20051 0.00000 -0.69311
v 1.37524 0.00000 -0.64128
v 1.49188 0.00000 -0.54300
v 1.63343 0.00000 -0.43768
v 1.70068 0.00000 -0.29988
v 1.73800 0.00000 -0.15205
v 1.97968 0.00000 0.00000
v 1.94808 0.00000 0.17044
v 1.91432 0.00000 0.33755
v 1.87581 0.00000 0.50262
v 1.77413 0.00000 0.64573
v 1.71836 0.00000 0.80129
v 1.67330 0.00000 0.96608
v 1.60975 0.00000 1.12716
v 1.49367 0.00000 1.25334
v 1.36564 0.00000 1.36564
v 1.24734 0.00000 1.48652
v 1.05864 0.00000 1.51190
v 0.92250 0.00000 1.59782
v 0.74455 0.00000 1.59670
v 0.58460 0.00000 1.60618
v 0.43304 0.00000 1.61613
v 0.28808 0.00000 1.63376
v 0.14547 0.00000 1.66272
v 0.00000 0.00000 1.61200
v -0.14047 0.00000 1.60552
v -0.27501 0.00000 1.55965
v -0.39577 0.00000 1.47705
v -0.51138 0.00000 1.40500
v -0.59986 0.00000 1.28641
v -0.68567 0.00000 1.18762
v -0.76381 0.00000 1.09083
v -0.84168 0.00000 1.00307
v -0.87691 0.00000 0.87691
v -0.89933 0.00000 0.75462
v -0.92341 0.00000 0.64658
v -0.91708 0.00000 0.52947
v -0.90673 0.00000 0.42282
v -0.94122 0.00000 0.34258
v -0.96416 0.00000 0.25835
v -0.99304 0.00000 0.17510
v -1.09401 0.00000 0.09571
v -1.19062 0.00000 0.00000
v -1.31329 0.00000 -0.11490
v -1.39147 0.00000 -0.24535
v -1.42220 0.00000 -0.38108
v -1.47702 0.00000 -0.53759
v -1.40446 0.00000 -0.65491
v -1.35956 0.00000 -0.78494
v -1.28939 0.00000 -0.90284
v -1.15932 0.00000 -0.97279
v -1.06554 0.00000 -1.06554
v -0.93601 0.00000 -1.11549
v -0.84351 0.00000 -1.20466
v -0.72540 0.00000 -1.25644
v -0.59408 0.00000 -1.27401
v -0.47108 0.00000 -1.29428
v -0.33247 0.00000 -1.24080
v -0.21485 0.00000 -1.21847
v -0.10090 0.00000 -1.15325
v -0.00000 0.00000 -1.08741
v 0.08912 0.00000 -1.01861
v 0.17446 0.00000 -0.98939
v 0.25617 0.00000 -0.95605
v 0.32842 0.00000 -0.90232
v 0.41741 0.00000 -0.89513
v 0.49255 0.00000 -0.85312
v 0.61549 0.00000 -0.87902
v 0.73178 0.00000 -0.87211
v 0.88212 0.00000 -0.88212
v 1.03113 0.00000 -0.86522
v 1.17931 0.00000 -0.82576
v 1.36858 0.00000 -0.79015
v 1.56777 0.00000 -0.73106
v 1.70074 0.00000 -0.61902
v 1.86211 0.00000 -0.49895
v 1.93877 0.00000 -0.34186
v 1.98131 0.00000 -0.17334
v 2.21763 0.00000 0.00000
v 2.18223 0.00000 0.19092
v 2.14441 0.00000 0.37812
v 2.10127 0.00000 0.56303
v 1.98737 0.00000 0.72334
v 1.92490 0.00000 0.89759
v 1.87442 0.00000 1.08220
v 1.80323 0.00000 1.26263
v 1.67320 0.00000 1.40398
v 1.52978 0.00000 1.52978
v 1.39726 0.00000 1.66519
v 1.18588 0.00000 1.69362
v 1.03338 0.00000 1.78987
v 0.83404 0.00000 1.78861
v 0.65487 0.00000 1.79923
v 0.48509 0.00000 1.81038
v 0.32270 0.00000 1.83013
v 0.16295 0.00000 1.86257
v 0.00000 0.00000 1.80575
v -0.15735 0.00000 1.79850
v -0.30806 0.00000 1.74712
v -0.44334 0.00000 1.65458
v -0.57284 0.00000 1.57387
v -0.67196 0.00000 1.44103
v -0.76809 0.00000 1.33037
v -0.85562 0.00000 1.22194
v -0.94284 0.00000 1.12364
v -0.98231 0.00000 0.98231
v -1.00742 0.00000 0.84532
v -1.03439 0.00000 0.72429
v -1.02730 0.00000 0.59311
v -1.01571 0.00000 0.47364
v -1.05435 0.00000 0.38375
v -1.08004 0.00000 0.28940
v -1.11239 0.00000 0.19614
v -1.22550 0.00000 0.10722
v -1.33372 0.00000 0.00000
v -1.47114 0.00000 -0.12871
v -1.55871 0.00000 -0.27484
v -1.59314 0.00000 -0.42688
v -1.65454 0.00000 -0.60220
v -1.57326 0.00000 -0.73363
v -1.52297 0.00000 -0.87929
v -1.44437 0.00000 -1.01136
v -1.29867 0.00000 -1.08971
v -1.19361 0.00000 -1.19361
v -1.04851 0.00000 -1.24957
v -0.94490 0.00000 -1.34945
v -0.81259 0.00000 -1.40745
v -0.66548 0.00000 -1.42714
v -0.52770 0.00000 -1.44985
v -0.37243 0.00000 -1.38993
v -0.24067 0.00000 -1.36492
v -0.11302 0.00000 -1.29186
v -0.00000 0.00000 -1.21811
v 0.09983 0.00000 -1.14104
v 0.19542 0.00000 -1.10831
v 0.28696 0.00000 -1.07097
v 0.36789 0.00000 -1.01078
v 0.46758 0.00000 -1.00272
v 0.55175 0.00000 -0.95566
v 0.68947 0.00000 -0.98467
v 0.81974 0.00000 -0.97693
v 0.98815 0.00000 -0.98815
v 1.15506 0.00000 -0.96921
v 1.32105 0.00000 -0.92501
v 1.53307 0.00000 -0.88512
v 1.75620 0.00000 -0.81893
v 1.90516 0.00000 -0.69342
v 2.08593 0.00000 -0.55892
v 2.17180 0.00000 -0.38295
v 2.21946 0.00000 -0.19418
v 2.45114 0.00000 0.00000
v 2.41202 0.00000 0.21102
v 2.37021 0.00000 0.41793
v 2.32253 0.00000 0.62232
v 2.19664 0.00000 0.79951
v 2.12759 0.00000 0.99211
v 2.07179 0.00000 1.19615
v 1.99311 0.00000 1.39559
v 1.84939 0.00000 1.55182
v 1.69087 0.00000 1.69087
v 1.54439 0.00000 1.84054
v 1.31076 0.00000 1.87195
v 1.14220 0.00000 1.97834
v 0.92187 0.00000 1.97695
v 0.72382 0.00000 1.98868
v 0.53617 0.00000 2.00101
v 0.35668 0.00000 2.02284
v 0.18011 0.00000 2.05869
v 0.00000 0.00000 1.99589
v -0.17392 0.00000 1.98788
v -0.34050 0.00000 1.93108
v -0.49003 0.00000 1.82881
v -0.63316 0.00000 1.73959
v -0.74272 0.00000 1.59277
v -0.84897 0.00000 1.47045
v -0.94571 0.00000 1.35061
v -1.04212 0.00000 1.24195
v -1.08574 0.00000 1.08574
v -1.11350 0.00000 0.93434
v -1.14331 0.00000 0.80056
v -1.13548 0.00000 0.65557
v -1.12267 0.00000 0.52351
v -1.16537 0.00000 0.42416
v -1.19377 0.00000 0.31987
v -1.22953 0.00000 0.21680
v -1.35454 0.00000 0.11851
v -1.47416 0.00000 0.00000
v -1.62605 0.00000 -0.14226
v -1.72284 0.00000 -0.30378
v -1.76089 0.00000 -0.47183
v -1.82877 0.00000 -0.66562
v -1.73893 0.00000 -0.81088
v -1.68333 0.00000 -0.97187
v -1.59646 0.00000 -1.11785
v -1.43542 0.00000 -1.20446
v -1.31930 0.00000 -1.31930
v -1.15892 0.00000 -1.38115
v -1.04439 0.00000 -1.49155
v -0.89816 0.00000 -1.55566
v -0.73556 0.00000 -1.57741
v -0.58327 0.00000 -1.60252
v -0.41165 0.00000 -1.53629
v -0.26601 0.00000 -1.50864
v -0.12492 0.00000 -1.42789
v -0.00000 0.00000 -1.34637
v 0.11034 0.00000 -1.26118
v 0.21600 0.00000 -1.22501
v 0.31718 0.00000 -1.18374
v 0.40663 0.00000 -1.11721
v 0.51681 0.00000 -1.10831
v 0.60985 0.00000 -1.05629
v 0.76207 0.00000 -1.08835
v 0.90606 0.00000 -1.07980
v 1.09220 0.00000 -1.09220
v 1.27669 0.00000 -1.07127
v 1.46016 0.00000 -1.02241
v 1.69450 0.00000 -0.97832
v 1.94113 0.00000 -0.90516
v 2.10577 0.00000 -0.76644
v 2.30557 0.00000 -0.61778
v 2.40049 0.00000 -0.42327
v 2.45316 0.00000 -0.21462
v 2.68078 0.00000 0.00000
v 2.63799 0.00000 0.23079
v 2.59228 0.00000 0.45709
v 2.54013 0.00000 0.68062
v 2.40244 0.00000 0.87442
v 2.32692 0.00000 1.08506
v 2.26589 0.00000 1.30821
v 2.17984 0.00000 1.52634
v 2.02265 0.00000 1.69721
v 1.84929 0.00000 1.84929
v 1.68909 0.00000 2.01297
v 1.43356 0.00000 2.04734
v 1.24921 0.00000 2.16369
v 1.00824 0.00000 2.16217
v 0.79164 0.00000 2.17500
v 0.58640 0.00000 2.18848
v 0.39010 0.00000 2.21235
v 0.19699 0.00000 2.25157
v 0.00000 0.00000 2.18288
v -0.19021 0.00000 2.17412
v -0.37240 0.00000 2.11201
v -0.53594 0.00000 2.00014
v -0.69248 0.00000 1.90258
v -0.81231 0.00000 1.74200
v -0.92851 0.00000 1.60822
v -1.03431 0.00000 1.47715
v -1.13976 0.00000 1.35831
v -1.18747 0.00000 1.18747
v -1.21782 0.00000 1.02187
v -1.25043 0.00000 0.87556
v -1.24186 0.00000 0.71699
v -1.22785 0.00000 0.57256
v -1.27455 0.00000 0.46390
v -1.30561 0.00000 0.34984
v -1.34472 0.00000 0.23711
v -1.48145 0.00000 0.12961
v -1.61227 0.00000 0.00000
v -1.77839 0.00000 -0.15559
v -1.88426 0.00000 -0.33225
v -1.92587 0.00000 -0.51603
v -2.00010 0.00000 -0.72798
v -1.90185 0.00000 -0.88685
v -1.84104 0.00000 -1.06293
v -1.74603 0.00000 -1.22258
v -1.56990 0.00000 -1.31730
v -1.44290 0.00000 -1.44290
v -1.26750 0.00000 -1.51054
v -1.14224 0.00000 -1.63129
v -0.98231 0.00000 -1.70140
v -0.80447 0.00000 -1.72520
v -0.63791 0.00000 -1.75265
v -0.45021 0.00000 -1.68023
v -0.29094 0.00000 -1.64998
v -0.13663 0.00000 -1.56167
v -0.00000 0.00000 -1.47251
v 0.12068 0.00000 -1.37934
v 0.23624 0.00000 -1.33978
v 0.34690 0.00000 -1.29464
v 0.44473 0.00000 -1.22188
v 0.56523 0.00000 -1.21215
v 0.66699 0.00000 -1.15525
v 0.83347 0.00000 -1.19032
v 0.99094 0.00000 -1.18096
v 1.19453 0.00000 -1.19453
v 1.39630 0.00000 -1.17164
v 1.59696 0.00000 -1.11820
v 1.85326 0.00000 -1.06998
v 2.12299 0.00000 -0.98997
v 2.30306 0.00000 -0.83824
v 2.52158 0.00000 -0.67566
v 2.62539 0.00000 -0.46293
v 2.68300 0.00000 -0.23473
vt 0.42709 0.43770
vt 0.50795 0.43770
vt 0.50666 0.44584
vt 0.50528 0.45383
vt 0.50371 0.46171
vt 0.49955 0.46855
vt 0.49728 0.47598
vt 0.49543 0.48385
vt 0.49284 0.49154
vt 0.48810 0.49757
vt 0.48287 0.50294
vt 0.47804 0.50871
vt 0.47033 0.50992
vt 0.46477 0.51403
vt 0.45750 0.51397
vt 0.45097 0.51443
vt 0.44478 0.51490
vt 0.43886 0.51574
vt 0.43303 0.51713
vt 0.42709 0.51471
vt 0.42135 0.51440
vt 0.41586 0.51220
vt 0.41092 0.50826
vt 0.40620 0.50482
vt 0.40259 0.49915
vt 0.39908 0.49443
vt 0.39589 0.48981
vt 0.39271 0.48562
vt 0.39127 0.47959
vt 0.39036 0.47375
vt 0.38937 0.46859
vt 0.38963 0.46299
vt 0.39005 0.45790
vt 0.38865 0.45407
vt 0.38771 0.45004
vt 0.38653 0.44607
vt 0.38241 0.44227
vt 0.37846 0.43770
vt 0.37345 0.43221
vt 0.37026 0.42598
vt 0.36900 0.41950
vt 0.36676 0.41202
vt 0.36973 0.40642
vt 0.37156 0.40021
vt 0.37442 0.39457
vt 0.37974 0.39123
vt 0.38357 0.38680
vt 0.38886 0.38442
vt 0.39264 0.38016
vt 0.39746 0.37768
vt 0.40282 0.37684
vt 0.40785 0.37587
vt 0.41351 0.37843
vt 0.41831 0.37950
vt 0.42297 0.38261
vt 0.42709 0.38576
vt 0.43073 0.38904
vt 0.43421 0.39044
vt 0.43755 0.39203
vt 0.44050 0.39460
vt 0.44414 0.39494
vt 0.44721 0.39695
vt 0.45223 0.39571
vt 0.45698 0.39604
vt 0.46312 0.39556
vt 0.46921 0.39637
vt 0.47526 0.39826
vt 0.48299 0.39996
vt 0.49112 0.40278
vt 0.49656 0.40813
vt 0.50315 0.41387
vt 0.50628 0.42137
vt 0.50802 0.42942
vt 0.57284 0.43770
vt 0.57051 0.45238
vt 0.56803 0.46677
vt 0.56519 0.48098
vt 0.55770 0.49330
vt 0.55360 0.50670
vt 0.55028 0.52088
vt 0.54560 0.53475
vt 0.53706 0.54562
vt 0.52763 0.55529
vt 0.51892 0.56570
vt 0.50503 0.56788
vt 0.49501 0.57528
vt 0.48191 0.57518
vt 0.47013 0.57600
vt 0.45897 0.57686
vt 0.44830 0.57837
vt 0.43780 0.58087
vt 0.42709 0.57650
vt 0.41675 0.57594
vt 0.40684 0.57199
vt 0.39795 0.56488
vt 0.38944 0.55868
vt 0.38293 0.54847
vt 0.37661 0.53996
vt 0.37086 0.53163
vt 0.36512 0.52407
vt 0.36253 0.51321
vt 0.36088 0.50268
vt 0.35911 0.49337
vt 0.35957 0.48329
vt 0.36033 0.47411
vt 0.35779 0.46720
vt 0.35611 0.45995
vt 0.35398 0.45278
vt 0.34655 0.44594
vt 0.33943 0.43770
vt 0.33040 0.42781
vt 0.32465 0.41658
vt 0.32238 0.40489
vt 0.31835 0.39141
vt 0.32369 0.38131
vt 0.32700 0.37011
vt 0.33216 0.35996
vt 0.34174 0.35394
vt 0.34864 0.34595
vt 0.35818 0.34165
vt 0.36499 0.33397
vt 0.37368 0.32952
vt 0.38335 0.32800
vt 0.39241 0.32626
vt 0.40261 0.33086
vt 0.41127 0.33279
vt 0.41966 0.33840
vt 0.42709 0.34407
vt 0.43365 0.35000
vt 0.43993 0.35251
vt 0.44595 0.35538
vt 0.45127 0.36001
vt 0.45782 0.36063
vt 0.46335 0.36424
vt 0.47240 0.36201
vt 0.48096 0.36261
vt 0.49203 0.36175
vt 0.50300 0.36320
vt 0.51391 0.36660
vt 0.52785 0.36967
vt 0.54251 0.37475
vt 0.55230 0.38440
vt 0.56418 0.39474
vt 0.56983 0.40827
vt 0.57296 0.42278
vt 0.63281 0.43770
vt 0.62953 0.45842
vt 0.62602 0.47872
vt 0.62202 0.49879
vt 0.61145 0.51618
vt 0.60566 0.53509
vt 0.60097 0.55511
vt 0.59437 0.57469
vt 0.58231 0.59003
vt 0.56900 0.60367
vt 0.55671 0.61837
vt 0.53710 0.62145
vt 0.52295 0.63189
vt 0.50446 0.63176
vt 0.48784 0.63291
vt 0.47209 0.63412
vt 0.45703 0.63626
vt 0.44221 0.63978
vt 0.42709 0.63362
vt 0.41249 0.63283
vt 0.39851 0.62725
vt 0.38596 0.61721
vt 0.37395 0.60846
vt 0.36475 0.59405
vt 0.35584 0.58204
vt 0.34772 0.57028
vt 0.33962 0.55961
vt 0.33596 0.54428
vt 0.33363 0.52941
vt 0.33113 0.51628
vt 0.33179 0.50205
vt 0.33286 0.48909
vt 0.32928 0.47934
vt 0.32690 0.46910
vt 0.32390 0.45898
vt 0.31340 0.44933
vt 0.30336 0.43770
vt 0.29062 0.42374
vt 0.28249 0.40788
vt 0.27930 0.39139
vt 0.27360 0.37237
vt 0.28114 0.35811
vt 0.28581 0.34230
vt 0.29310 0.32797
vt 0.30662 0.31947
vt 0.31636 0.30820
vt 0.32982 0.30213
vt 0.33943 0.29129
vt 0.35171 0.28500
vt 0.36535 0.28286
vt 0.37814 0.28040
vt 0.39254 0.28690
vt 0.40476 0.28962
vt 0.41660 0.29754
vt 0.42709 0.30554
vt 0.43635 0.31391
vt 0.44522 0.31746
vt 0.45371 0.32151
vt 0.46122 0.32804
vt 0.47047 0.32891
vt 0.47827 0.33402
vt 0.49105 0.33087
vt 0.50313 0.33171
vt 0.51876 0.33049
vt 0.53424 0.33255
vt 0.54964 0.33734
vt 0.56931 0.34167
vt 0.59001 0.34885
vt 0.60383 0.36247
vt 0.62059 0.37706
vt 0.62856 0.39615
vt 0.63298 0.41663
vt 0.68980 0.43770
vt 0.68561 0.46415
vt 0.68113 0.49009
vt 0.67602 0.51571
vt 0.66252 0.53792
vt 0.65512 0.56206
vt 0.64914 0.58764
vt 0.64071 0.61264
vt 0.62531 0.63222
vt 0.60832 0.64965
vt 0.59262 0.66841
vt 0.56758 0.67235
vt 0.54951 0.68569
vt 0.52589 0.68551
vt 0.50467 0.68698
vt 0.48456 0.68853
vt 0.46532 0.69127
vt 0.44639 0.69576
vt 0.42709 0.68789
vt 0.40845 0.68688
vt 0.39059 0.67976
vt 0.37457 0.66694
vt 0.35923 0.65576
vt 0.34748 0.63736
vt 0.33610 0.62202
vt 0.32573 0.60700
vt 0.31540 0.59338
vt 0.31072 0.57380
vt 0.30775 0.55482
vt 0.30455 0.53805
vt 0.30539 0.51988
vt 0.30676 0.50332
vt 0.30219 0.49087
vt 0.29914 0.47780
vt 0.29531 0.46488
vt 0.28191 0.45256
vt 0.26909 0.43770
vt 0.25281 0.41987
vt 0.24244 0.39962
vt 0.23836 0.37856
vt 0.23108 0.35427
vt 0.24071 0.33606
vt 0.24667 0.31588
vt 0.25598 0.29758
vt 0.27324 0.28672
vt 0.28569 0.27233
vt 0.30288 0.26457
vt 0.31515 0.25073
vt 0.33083 0.24270
vt 0.34825 0.23997
vt 0.36458 0.23682
vt 0.38297 0.24513
vt 0.39858 0.24859
vt 0.41370 0.25871
vt 0.42709 0.26893
vt 0.43892 0.27961
vt 0.45024 0.28415
vt 0.46108 0.28932
vt 0.47067 0.29766
vt 0.48248 0.29877
vt 0.49245 0.30529
vt 0.50877 0.30128
vt 0.52420 0.30235
vt 0.54415 0.30079
vt 0.56392 0.30342
vt 0.58359 0.30954
vt 0.60871 0.31507
vt 0.63514 0.32424
vt 0.65278 0.34163
vt 0.67420 0.36026
vt 0.68437 0.38464
vt 0.69002 0.41080
vt 0.74467 0.43770
vt 0.73960 0.46968
vt 0.73418 0.50103
vt 0.72801 0.53200
vt 0.71170 0.55885
vt 0.70275 0.58804
vt 0.69552 0.61895
vt 0.68532 0.64918
vt 0.66670 0.67285
vt 0.64617 0.69392
vt 0.62719 0.71660
vt 0.59692 0.72136
vt 0.57508 0.73748
vt 0.54653 0.73727
vt 0.52087 0.73905
vt 0.49656 0.74091
vt 0.47330 0.74422
vt 0.45043 0.74966
vt 0.42709 0.74014
vt 0.40456 0.73893
vt 0.38297 0.73032
vt 0.36360 0.71482
vt 0.34505 0.70130
vt 0.33086 0.67905
vt 0.31709 0.66052
vt 0.30456 0.64236
vt 0.29207 0.62590
vt 0.28642 0.60222
vt 0.28282 0.57928
vt 0.27896 0.55901
vt 0.27997 0.53704
vt 0.28163 0.51703
vt 0.27610 0.50197
vt 0.27242 0.48617
vt 0.26779 0.47055
vt 0.25159 0.45566
vt 0.23609 0.43770
vt 0.21641 0.41614
vt 0.20387 0.39167
vt 0.19894 0.36620
vt 0.19015 0.33684
vt 0.20179 0.31483
vt 0.20899 0.29043
vt 0.22025 0.26831
vt 0.24111 0.25519
vt 0.25616 0.23779
vt 0.27693 0.22842
vt 0.29177 0.21169
vt 0.31072 0.20197
vt 0.33179 0.19868
vt 0.35152 0.19487
vt 0.37375 0.20491
vt 0.39262 0.20910
vt 0.41090 0.22133
vt 0.42709 0.23368
vt 0.44139 0.24659
vt 0.45508 0.25207
vt 0.46818 0.25833
vt 0.47977 0.26841
vt 0.49405 0.26976
vt 0.50610 0.27764
vt 0.52583 0.27278
vt 0.54448 0.27408
vt 0.56860 0.27220
vt 0.59250 0.27537
vt 0.61627 0.28277
vt 0.64664 0.28946
vt 0.67859 0.30054
vt 0.69992 0.32156
vt 0.72581 0.34409
vt 0.73811 0.37356
vt 0.74493 0.40518
vt 0.79790 0.43770
vt 0.79199 0.47504
vt 0.78566 0.51165
vt 0.77845 0.54781
vt 0.75940 0.57916
vt 0.74896 0.61324
vt 0.74052 0.64934
vt 0.72861 0.68462
vt 0.70687 0.71227
vt 0.68289 0.73687
vt 0.66073 0.76335
vt 0.62538 0.76891
vt 0.59988 0.78773
vt 0.56655 0.78749
vt 0.53659 0.78956
vt 0.50820 0.79174
vt 0.48105 0.79560
vt 0.45434 0.80195
vt 0.42709 0.79084
vt 0.40078 0.78942
vt 0.37558 0.77937
vt 0.35296 0.76127
vt 0.33130 0.74549
vt 0.31473 0.71951
vt 0.29866 0.69787
vt 0.28402 0.67667
vt 0.26943 0.65744
vt 0.26284 0.62980
vt 0.25864 0.60301
vt 0.25413 0.57934
vt 0.25531 0.55369
vt 0.25725 0.53033
vt 0.25079 0.51275
vt 0.24649 0.49430
vt 0.24108 0.47606
vt 0.22217 0.45867
vt 0.20407 0.43770
vt 0.18110 0.41253
vt 0.16645 0.38395
vt 0.16070 0.35422
vt 0.15043 0.31993
vt 0.16402 0.29423
vt 0.17243 0.26575
vt 0.18557 0.23992
vt 0.20994 0.22460
vt 0.22750 0.20428
vt 0.25177 0.19333
vt 0.26909 0.17380
vt 0.29121 0.16246
vt 0.31581 0.15861
vt 0.33885 0.15417
vt 0.36481 0.16588
vt 0.38685 0.17078
vt 0.40819 0.18506
vt 0.42709 0.19949
vt 0.44378 0.21456
vt 0.45977 0.22096
vt 0.47507 0.22826
vt 0.48861 0.24003
vt 0.50527 0.24161
vt 0.51935 0.25081
vt 0.54238 0.24514
vt 0.56416 0.24665
vt 0.59232 0.24446
vt 0.62023 0.24816
vt 0.64799 0.25680
vt 0.68344 0.26461
vt 0.72075 0.27755
vt 0.74566 0.30209
vt 0.77588 0.32840
vt 0.79024 0.36281
vt 0.79821 0.39973
vt 0.84982 0.43770
vt 0.84307 0.48027
vt 0.83586 0.52200
vt 0.82764 0.56322
vt 0.80593 0.59896
vt 0.79402 0.63781
vt 0.78439 0.67897
vt 0.77082 0.71919
vt 0.74604 0.75071
vt 0.71870 0.77875
vt 0.69344 0.80894
vt 0.65315 0.81528
vt 0.62408 0.83674
vt 0.58608 0.83646
vt 0.55192 0.83882
vt 0.51956 0.84131
vt 0.48860 0.84571
vt 0.45815 0.85294
vt 0.42709 0.84028
vt 0.39710 0.83866
vt 0.36837 0.82720
vt 0.34258 0.80657
vt 0.31789 0.78858
vt 0.29900 0.75897
vt 0.28067 0.73429
vt 0.26399 0.71012
vt 0.24736 0.68821
vt 0.23984 0.65670
vt 0.23505 0.62616
vt 0.22991 0.59917
vt 0.23126 0.56993
vt 0.23347 0.54329
vt 0.22611 0.52325
vt 0.22121 0.50222
vt 0.21504 0.48143
vt 0.19348 0.46160
vt 0.17285 0.43770
vt 0.14666 0.40901
vt 0.12996 0.37643
vt 0.12340 0.34253
vt 0.11170 0.30345
vt 0.12719 0.27415
vt 0.13678 0.24167
vt 0.15176 0.21223
vt 0.17953 0.19476
vt 0.19956 0.17160
vt 0.22722 0.15912
vt 0.24697 0.13685
vt 0.27219 0.12392
vt 0.30023 0.11953
vt 0.32650 0.11447
vt 0.35610 0.12783
vt 0.38121 0.13341
vt 0.40554 0.14969
vt 0.42709 0.16614
vt 0.44612 0.18332
vt 0.46434 0.19061
vt 0.48179 0.19894
vt 0.49722 0.21236
vt 0.51622 0.21415
vt 0.53227 0.22465
vt 0.55852 0.21818
vt 0.58335 0.21990
vt 0.61545 0.21740
vt 0.64727 0.22162
vt 0.67891 0.23148
vt 0.71933 0.24037
vt 0.76186 0.25513
vt 0.79025 0.28311
vt 0.82471 0.31309
vt 0.84108 0.35233
vt 0.85017 0.39441
vt 0.90063 0.43770
vt 0.89307 0.48538
vt 0.88499 0.53213
vt 0.87578 0.57831
vt 0.85146 0.61835
vt 0.83812 0.66186
vt 0.82734 0.70796
vt 0.81214 0.75303
vt 0.78437 0.78833
vt 0.75375 0.81974
vt 0.72545 0.85356
vt 0.68032 0.86066
vt 0.64775 0.88470
vt 0.60519 0.88438
vt 0.56693 0.88703
vt 0.53067 0.88982
vt 0.49600 0.89475
vt 0.46189 0.90285
vt 0.42709 0.88866
vt 0.39349 0.88685
vt 0.36131 0.87402
vt 0.33242 0.85091
vt 0.30477 0.83075
vt 0.28360 0.79758
vt 0.26308 0.76994
vt 0.24439 0.74287
vt 0.22576 0.71831
vt 0.21733 0.68302
vt 0.21197 0.64881
vt 0.20621 0.61858
vt 0.20773 0.58582
vt 0.21020 0.55599
vt 0.20195 0.53354
vt 0.19646 0.50997
vt 0.18956 0.48669
vt 0.16540 0.46448
vt 0.14229 0.43770
vt 0.11295 0.40556
vt 0.09425 0.36906
vt 0.08690 0.33109
vt 0.07379 0.28731
vt 0.09114 0.25449
vt 0.10188 0.21811
vt 0.11867 0.18513
vt 0.14978 0.16556
vt 0.17221 0.13961
vt 0.20320 0.12564
vt 0.22532 0.10069
vt 0.25357 0.08621
vt 0.28499 0.08129
vt 0.31441 0.07562
vt 0.34756 0.09058
vt 0.37570 0.09683
vt 0.40296 0.11508
vt 0.42709 0.13350
vt 0.44841 0.15274
vt 0.46882 0.16092
vt 0.48837 0.17024
vt 0.50565 0.18527
vt 0.52693 0.18728
vt 0.54491 0.19904
vt 0.57432 0.19179
vt 0.60213 0.19373
vt 0.63809 0.19092
vt 0.67373 0.19565
vt 0.70918 0.20669
vt 0.75445 0.21665
vt 0.80210 0.23318
vt 0.83391 0.26453
vt 0.87251 0.29812
vt 0.89084 0.34207
vt 0.90102 0.38921
vt 0.95049 0.43770
vt 0.94214 0.49040
vt 0.93321 0.54207
vt 0.92303 0.59312
vt 0.89615 0.63737
vt 0.88140 0.68547
vt 0.86949 0.73642
vt 0.85268 0.78623
vt 0.82200 0.82525
vt 0.78815 0.85997
vt 0.75687 0.89735
vt 0.70698 0.90520
vt 0.67099 0.93177
vt 0.62394 0.93142
vt 0.58165 0.93435
vt 0.54158 0.93742
vt 0.50325 0.94288
vt 0.46555 0.95183
vt 0.42709 0.93615
vt 0.38995 0.93415
vt 0.35438 0.91996
vt 0.32245 0.89442
vt 0.29189 0.87214
vt 0.26849 0.83547
vt 0.24581 0.80493
vt 0.22515 0.77500
vt 0.20456 0.74786
vt 0.19525 0.70885
vt 0.18932 0.67104
vt 0.18295 0.63763
vt 0.18463 0.60142
vt 0.18736 0.56844
vt 0.17824 0.54363
vt 0.17218 0.51758
vt 0.16454 0.49184
vt 0.13785 0.46730
vt 0.11231 0.43770
vt 0.07987 0.40217
vt 0.05920 0.36184
vt 0.05108 0.31987
vt 0.03659 0.27147
vt 0.05577 0.23520
vt 0.06764 0.19499
vt 0.08619 0.15853
vt 0.12058 0.13690
vt 0.14537 0.10822
vt 0.17962 0.09278
vt 0.20408 0.06521
vt 0.23530 0.04920
vt 0.27002 0.04376
vt 0.30254 0.03749
vt 0.33919 0.05403
vt 0.37029 0.06094
vt 0.40041 0.08110
vt 0.42709 0.10146
vt 0.45065 0.12274
vt 0.47321 0.13177
vt 0.49482 0.14208
vt 0.51392 0.15869
vt 0.53745 0.16092
vt 0.55731 0.17391
vt 0.58982 0.16590
vt 0.62056 0.16804
vt 0.66031 0.16494
vt 0.69971 0.17017
vt 0.73888 0.18237
vt 0.78892 0.19338
vt 0.84159 0.21165
vt 0.87674 0.24629
vt 0.91941 0.28342
vt 0.93967 0.33200
vt 0.95092 0.38410
vt 0.99953 0.43770
vt 0.99039 0.49534
vt 0.98063 0.55185
vt 0.96949 0.60768
vt 0.94009 0.65607
vt 0.92397 0.70868
vt 0.91093 0.76441
vt 0.89256 0.81888
vt 0.85899 0.86156
vt 0.82197 0.89953
vt 0.78777 0.94041
vt 0.73320 0.94900
vt 0.69384 0.97805
vt 0.64238 0.97767
vt 0.59613 0.98088
vt 0.55231 0.98424
vt 0.51039 0.99021
vt 0.46915 1.00000
vt 0.42709 0.98285
vt 0.38647 0.98066
vt 0.34757 0.96515
vt 0.31265 0.93721
vt 0.27922 0.91284
vt 0.25363 0.87274
vt 0.22882 0.83933
vt 0.20623 0.80660
vt 0.18371 0.77692
vt 0.17352 0.73425
vt 0.16704 0.69290
vt 0.16008 0.65636
vt 0.16191 0.61676
vt 0.16490 0.58069
vt 0.15493 0.55355
vt 0.14830 0.52507
vt 0.13995 0.49692
vt 0.11075 0.47007
vt 0.08281 0.43770
vt 0.04734 0.39885
vt 0.02474 0.35473
vt 0.01585 0.30883
vt 0.00000 0.25590
vt 0.02098 0.21622
vt 0.03396 0.17225
vt 0.05425 0.13238
vt 0.09186 0.10872
vt 0.11898 0.07736
vt 0.15644 0.06046
vt 0.18318 0.03031
vt 0.21733 0.01280
vt 0.25531 0.00686
vt 0.29087 0.00000
vt 0.33095 0.01809
vt 0.36496 0.02564
vt 0.39791 0.04770
vt 0.42709 0.06996
vt 0.45286 0.09323
vt 0.47753 0.10311
vt 0.50116 0.11438
vt 0.52205 0.13255
vt 0.54779 0.13498
vt 0.56951 0.14919
vt 0.60506 0.14043
vt 0.63869 0.14277
vt 0.68216 0.13938
vt 0.72525 0.14510
vt 0.76809 0.15845
vt 0.82282 0.17049
vt 0.88042 0.19047
vt 0.91887 0.22836
vt 0.96553 0.26897
vt 0.98770 0.32209
vt 1.00000 0.37908
vn 0 1 0
f 1/1/1 3/3/1 2/2/1
f 1/1/1 4/4/1 3/3/1
f 1/1/1 5/5/1 4/4/1
f 1/1/1 6/6/1 5/5/1
f 1/1/1 7/7/1 6/6/1
f 1/1/1 8/8/1 7/7/1
f 1/1/1 9/9/1 8/8/1
f 1/1/1 10/10/1 9/9/1
f 1/1/1 11/11/1 10/10/1
f 1/1/1 12/12/1 11/11/1
f 1/1/1 13/13/1 12/12/1
f 1/1/1 14/14/1 13/13/1
f 1/1/1 15/15/1 14/14/1
f 1/1/1 16/16/1 15/15/1
f 1/1/1 17/17/1 16/16/1
f 1/1/1 18/18/1 17/17/1
f 1/1/1 19/19/1 18/18/1
f 1/1/1 20/20/1 19/19/1
f 1/1/1 21/21/1 20/20/1
f 1/1/1 22/22/1 21/21/1
f 1/1/1 23/23/1 22/22/1
f 1/1/1 24/24/1 23/23/1
f 1/1/1 25/25/1 24/24/1
f 1/1/1 26/26/1 25/25/1
f 1/1/1 27/27/1 26/26/1
f 1/1/1 28/28/1 27/27/1
f 1/1/1 29/29/1 28/28/1
f 1/1/1 30/30/1 29/29/1
f 1/1/1 31/31/1 30/30/1
f 1/1/1 32/32/1 31/31/1
f 1/1/1 33/33/1 32/32/1
f 1/1/1 34/34/1 33/33/1
f 1/1/1 35/35/1 34/34/1
f 1/1/1 36/36/1 35/35/1
f 1/1/1 37/37/1 36/36/1
f 1/1/1 38/38/1 37/37/1
f 1/1/1 39/39/1 38/38/1
f 1/1/1 40/40/1 39/39/1
f 1/1/1 41/41/1 40/40/1
f 1/1/1 42/42/1 41/41/1
f 1/1/1 43/43/1 42/42/1
f 1/1/1 44/44/1 43/43/1
f 1/1/1 45/45/1 44/44/1
f 1/1/1 46/46/1 45/45/1
f 1/1/1 47/47/1 46/46/1
f 1/1/1 48/48/1 47/47/1
f 1/1/1 49/49/1 48/48/1
f 1/1/1 50/50/1 49/49/1
f 1/1/1 51/51/1 50/50/1
f 1/1/1 52/52/1 51/51/1
f 1/1/1 53/53/1 52/52/1
f 1/1/1 54/54/1 53/53/1
f 1/1/1 55/55/1 54/54/1
f 1/1/1 56/56/1 55/55/1
f 1/1/1 57/57/1 56/56/1
f 1/1/1 58/58/1 57/57/1
f 1/1/1 59/59/1 58/58/1
f 1/1/1 60/60/1 59/59/1
f 1/1/1 61/61/1 60/60/1
f 1/1/1 62/62/1 61/61/1
f 1/1/1 63/63/1 62/62/1
f 1/1/1 64/64/1 63/63/1
f 1/1/1 65/65/1 64/64/1
f 1/1/1 66/66/1 65/65/1
f 1/1/1 67/67/1 66/66/1
f 1/1/1 68/68/1 67/67/1
f 1/1/1 69/69/1 68/68/1
f 1/1/1 70/70/1 69/69/1
f 1/1/1 71/71/1 70/70/1
f 1/1/1 72/72/1 71/71/1
f 1/1/1 73/73/1 72/72/1
f 1/1/1 2/2/1 73/73/1
f 2/2/1 75/75/1 3/3/1
f 2/2/1 74/74/1 75/75/1
f 3/3/1 76/76/1 4/4/1
f 3/3/1 75/75/1 76/76/1
f 4/4/1 77/77/1 5/5/1
f 4/4/1 76/76/1 77/77/1
f 5/5/1 78/78/1 6/6/1
f 5/5/1 77/77/1 78/78/1
f 6/6/1 79/79/1 7/7/1
f 6/6/1 78/78/1 79/79/1
f 7/7/1 80/80/1 8/8/1
f 7/7/1 79/79/1 80/80/1
f 8/8/1 81/81/1 9/9/1
f 8/8/1 80/80/1 81/81/1
f 9/9/1 82/82/1 10/10/1
f 9/9/1 81/81/1 82/82/1
f 10/10/1 83/83/1 11/11/1
f 10/10/1 82/82/1 83/83/1
f 11/11/1 84/84/1 12/12/1
f 11/11/1 83/83/1 84/84/1
f 12/12/1 85/85/1 13/13/1
f 12/12/1 84/84/1 85/85/1
f 13/13/1 86/86/1 14/14/1
f 13/13/1 85/85/1 86/86/1
f 14/14/1 87/87/1 15/15/1
f 14/14/1 86/86/1 87/87/1
f 15/15/1 88/88/1 16/16/1
f 15/15/1 87/87/1 88/88/1
f 16/16/1 89/89/1 17/17/1
f 16/16/1 88/88/1 89/89/1
f 17/17/1 90/90/1 18/18/1
f 17/17/1 89/89/1 90/90/1
f 18/18/1 91/91/1 19/19/1
f 18/18/1 90/90/1 91/91/1
f 19/19/1 92/92/1 20/20/1
f 19/19/1 91/91/1 92/92/1
f 20/20/1 93/93/1 21/21/1
f 20/20/1 92/92/1 93/93/1
f 21/21/1 94/94/1 22/22/1
f 21/21/1 93/93/1 94/94/1
f 22/22/1 95/95/1 23/23/1
f 22/22/1 94/94/1 95/95/1
f 23/23/1 96/96/1 24/24/1
f 23/23/1 95/95/1 96/96/1
f 24/24/1 97/97/1 25/25/1
f 24/24/1 96/96/1 97/97/1
f 25/25/1 98/98/1 26/26/1
f 25/25/1 97/97/1 98/98/1
f 26/26/1 99/99/1 27/27/1
f 26/26/1 98/98/1 99/99/1
f 27/27/1 100/100/1 28/28/1
f 27/27/1 99/99/1 100/100/1
f 28/28/1 101/101/1 29/29/1
f 28/28/1 100/100/1 101/101/1
f 29/29/1 102/102/1 30/30/1
f 29/29/1 101/101/1 102/102/1
f 30/30/1 103/103/1 31/31/1
f 30/30/1 102/102/1 103/103/1
f 31/31/1 104/104/1 32/32/1
f 31/31/1 103/103/1 104/104/1
f 32/32/1 105/105/1 33/33/1
f 32/32/1 104/104/1 105/105/1
f 33/33/1 106/106/1 34/34/1
f 33/33/1 105/105/1 106/106/1
f 34/34/1 107/107/1 35/35/1
f 34/34/1 106/106/1 107/107/1
f 35/35/1 108/108/1 36/36/1
f 35/35/1 107/107/1 108/108/1
f 36/36/1 109/109/1 37/37/1
f 36/36/1 108/108/1 109/109/1
f 37/37/1 110/110/1 38/38/1
f 37/37/1 109/109/1 110/110/1
f 38/38/1 111/111/1 39/39/1
f 38/38/1 110/110/1 111/111/1
f 39/39/1 112/112/1 40/40/1
f 39/39/1 111/111/1 112/112/1
f 40/40/1 113/113/1 41/41/1
f 40/40/1 112/112/1 113/113/1
f 41/41/1 114/114/1 42/42/1
f 41/41/1 113/113/1 114/114/1
f 42/42/1 115/115/1 43/43/1
f 42/42/1 114/114/1 115/115/1
f 43/43/1 116/116/1 44/44/1
f 43/43/1 115/115/1 116/116/1
f 44/44/1 117/117/1 45/45/1
f 44/44/1 116/116/1 117/117/1
f 45/45/1 118/118/1 46/46/1
f 45/45/1 117/117/1 118/118/1
f 46/46/1 119/119/1 47/47/1
f 46/46/1 118/118/1 119/119/1
f 47/47/1 120/120/1 48/48/1
f 47/47/1 119/119/1 120/120/1
f 48/48/1 121/121/1 49/49/1
f 48/48/1 120/120/1 121/121/1
f 49/49/1 122/122/1 50/50/1
f 49/49/1 121/121/1 122/122/1
f 50/50/1 123/123/1 51/51/1
f 50/50/1 122/122/1 123/123/1
f 51/51/1 124/124/1 52/52/1
f 51/51/1 123/123/1 124/124/1
f 52/52/1 125/125/1 53/53/1
f 52/52/1 124/124/1 125/125/1
f 53/53/1 126/126/1 54/54/1
f 53/53/1 125/125/1 126/126/1
f 54/54/1 127/127/1 55/55/1
f 54/54/1 126/126/1 127/127/1
f 55/55/1 128/128/1 56/56/1
f 55/55/1 127/127/1 128/128/1
f 56/56/1 129/129/1 57/57/1
f 56/56/1 128/128/1 129/129/1
f 57/57/1 130/130/1 58/58/1
f 57/57/1 129/129/1 130/130/1
f 58/58/1 131/131/1 59/59/1
f 58/58/1 130/130/1 131/131/1
f 59/59/1 132/132/1 60/60/1
f 59/59/1 131/131/1 132/132/1
f 60/60/1 133/133/1 61/61/1
f 60/60/1 132/132/1 133/133/1
f 61/61/1 134/134/1 62/62/1
f 61/61/1 133/133/1 134/134/1
f 62/62/1 135/135/1 63/63/1
f 62/62/1 134/134/1 135/135/1
f 63/63/1 136/136/1 64/64/1
f 63/63/1 135/135/1 136/136/1
f 64/64/1 137/137/1 65/65/1
f 64/64/1 136/136/1 137/137/1
f 65/65/1 138/138/1 66/66/1
f 65/65/1 137/137/1 138/138/1
f 66/66/1 139/139/1 67/67/1
f 66/66/1 138/138/1 139/139/1
f 67/67/1 140/140/1 68/68/1
f 67/67/1 139/139/1 140/140/1
f 68/68/1 141/141/1 69/69/1
f 68/68/1 140/140/1 141/141/1
f 69/69/1 142/142/1 70/70/1
f 69/69/1 141/141/1 142/142/1
f 70/70/1 143/143/1 71/71/1
f 70/70/1 142/142/1 143/143/1
f 71/71/1 144/144/1 72/72/1
f 71/71/1 143/143/1 144/144/1
f 72/72/1 145/145/1 73/73/1
f 72/72/1 144/144/1 145/145/1
f 73/73/1 74/74/1 2/2/1
f 73/73/1 145/145/1 74/74/1
f 74/74/1 147/147/1 75/75/1
f 74/74/1 146/146/1 147/147/1
f 75/75/1 148/148/1 76/76/1
f 75/75/1 147/147/1 148/148/1
f 76/76/1 149/149/1 77/77/1
f 76/76/1 148/148/1 149/149/1
f 77/77/1 150/150/1 78/78/1
f 77/77/1 149/149/1 150/150/1
f 78/78/1 151/151/1 79/79/1
f 78/78/1 150/150/1 151/151/1
f 79/79/1 152/152/1 80/80/1
f 79/79/1 151/151/1 152/152/1
f 80/80/1 153/153/1 81/81/1
f 80/80/1 152/152/1 153/153/1
f 81/81/1 154/154/1 82/82/1
f 81/81/1 153/153/1 154/154/1
f 82/82/1 155/155/1 83/83/1
f 82/82/1 154/154/1 155/155/1
f 83/83/1 156/156/1 84/84/1
f 83/83/1 155/155/1 156/156/1
f 84/84/1 157/157/1 85/85/1
f 84/84/1 156/156/1 157/157/1
f 85/85/1 158/158/1 86/86/1
f 85/85/1 157/157/1 158/158/1
f 86/86/1 159/159/1 87/87/1
f 86/86/1 158/158/1 159/159/1
f 87/87/1 160/160/1 88/88/1
f 87/87/1 159/159/1 160/160/1
f 88/88/1 161/161/1 89/89/1
f 88/88/1 160/160/1 161/161/1
f 89/89/1 162/162/1 90/90/1
f 89/89/1 161/161/1 162/162/1
f 90/90/1 163/163/1 91/91/1
f 90/90/1 162/162/1 163/163/1
f 91/91/1 164/164/1 92/92/1
f 91/91/1 163/163/1 164/164/1
f 92/92/1 165/165/1 93/93/1
f 92/92/1 164/164/1 165/165/1
f 93/93/1 166/166/1 94/94/1
f 93/93/1 165/165/1 166/166/1
f 94/94/1 167/167/1 95/95/1
f 94/94/1 166/166/1 167/167/1
f 95/95/1 168/168/1 96/96/1
f 95/95/1 167/167/1 168/168/1
f 96/96/1 169/169/1 97/97/1
f 96/96/1 168/168/1 169/169/1
f 97/97/1 170/170/1 98/98/1
f 97/97/1 169/169/1 170/170/1
f 98/98/1 171/171/1 99/99/1
f 98/98/1 170/170/1 171/171/1
f 99/99/1 172/172/1 100/100/1
f 99/99/1 171/171/1 172/172/1
f 100/100/1 173/173/1 101/101/1
f 100/100/1 172/172/1 173/173/1
f 101/101/1 174/174/1 102/102/1
f 101/101/1 173/173/1 174/174/1
f 102/102/1 175/175/1 103/103/1
f 102/102/1 174/174/1 175/175/1
f 103/103/1 176/176/1 104/104/1
f 103/103/1 175/175/1 176/176/1
f 104/104/1 177/177/1 105/105/1
f 104/104/1 176/176/1 177/177/1
f 105/105/1 178/178/1 106/106/1
f 105/105/1 177/177/1 178/178/1
f 106/106/1 179/179/1 107/107/1
f 106/106/1 178/178/1 179/179/1
f 107/107/1 180/180/1 108/108/1
f 107/107/1 179/179/1 180/180/1
f 108/108/1 181/181/1 109/109/1
f 108/108/1 180/180/1 181/181/1
f 109/109/1 182/182/1 110/110/1
f 109/109/1 181/181/1 182/182/1
f 110/110/1 183/183/1 111/111/1
f 110/110/1 182/182/1 183/183/1
f 111/111/1 184/184/1 112/112/1
f 111/111/1 183/183/1 184/184/1
f 112/112/1 185/185/1 113/113/1
f 112/112/1 184/184/1 185/185/1
f 113/113/1 186/186/1 114/114/1
f 113/113/1 185/185/1 186/186/1
f 114/114/1 187/187/1 115/115/1
f 114/114/1 186/186/1 187/187/1
f 115/115/1 188/188/1 116/116/1
f 115/115/1 187/187/1 188/188/1
f 116/116/1 189/189/1 117/117/1
f 116/116/1 188/188/1 189/189/1
f 117/117/1 190/190/1 118/118/1
f 117/117/1 189/189/1 190/190/1
f 118/118/1 191/191/1 119/119/1
f 118/118/1 190/190/1 191/191/1
f 119/119/1 192/192/1 120/120/1
f 119/119/1 191/191/1 192/192/1
f 120/120/1 193/193/1 121/121/1
f 120/120/1 192/192/1 193/193/1
f 121/121/1 194/194/1 122/122/1
f 121/121/1 193/193/1 194/194/1
f 122/122/1 195/195/1 123/123/1
f 122/122/1 194/194/1 195/195/1
f 123/123/1 196/196/1 124/124/1
f 123/123/1 195/195/1 196/196/1
f 124/124/1 197/197/1 125/125/1
f 124/124/1 196/196/1 197/197/1
f 125/125/1 198/198/1 126/126/1
f 125/125/1 197/197/1 198/198/1
f 126/126/1 199/199/1 127/127/1
f 126/126/1 198/198/1 199/199/1
f 127/127/1 200/200/1 128/128/1
f 127/127/1 199/199/1 200/200/1
f 128/128/1 201/201/1 129/129/1
f 128/128/1 200/200/1 201/201/1
f 129/129/1 202/202/1 130/130/1
f 129/129/1 201/201/1 202/202/1
f 130/130/1 203/203/1 131/131/1
f 130/130/1 202/202/1 203/203/1
f 131/131/1 204/204/1 132/132/1
f 131/131/1 203/203/1 204/204/1
f 132/132/1 205/205/1 133/133/1
f 132/132/1 204/204/1 205/205/1
f 133/133/1 206/206/1 134/134/1
f 133/133/1 205/205/1 206/206/1
f 134/134/1 207/207/1 135/135/1
f 134/134/1 206/206/1 207/207/1
f 135/135/1 208/208/1 136/136/1
f 135/135/1 207/207/1 208/208/1
f 136/136/1 209/209/1 137/137/1
f 136/136/1 208/208/1 209/209/1
f 137/137/1 210/210/1 138/138/1
f 137/137/1 209/209/1 210/210/1
f 138/138/1 211/211/1 139/139/1
f 138/138/1 210/210/1 211/211/1
f 139/139/1 212/212/1 140/140/1
f 139/139/1 211/211/1 212/212/1
f 140/140/1 213/213/1 141/141/1
f 140/140/1 212/212/1 213/213/1
f 141/141/1 214/214/1 142/142/1
f 141/141/1 213/213/1 214/214/1
f 142/142/1 215/215/1 143/143/1
f 142/142/1 214/214/1 215/215/1
f 143/143/1 216/216/1 144/144/1
f 143/143/1 215/215/1 216/216/1
f 144/144/1 217/217/1 145/145/1
f 144/144/1 216/216/1 217/217/1
f 145/145/1 146/146/1 74/74/1
f 145/145/1 217/217/1 146/146/1
f 146/146/1 219/219/1 147/147/1
f 146/146/1 218/218/1 219/219/1
f 147/147/1 220/220/1 148/148/1
f 147/147/1 219/219/1 220/220/1
f 148/148/1 221/221/1 149/149/1
f 148/148/1 220/220/1 221/221/1
f 149/149/1 222/222/1 150/150/1
f 149/149/1 221/221/1 222/222/1
f 150/150/1 223/223/1 151/151/1
f 150/150/1 222/222/1 223/223/1
f 151/151/1 224/224/1 152/152/1
f 151/151/1 223/223/1 224/224/1
f 152/152/1 225/225/1 153/153/1
f 152/152/1 224/224/1 225/225/1
f 153/153/1 226/226/1 154/154/1
f 153/153/1 225/225/1 226/226/1
f 154/154/1 227/227/1 155/155/1
f 154/154/1 226/226/1 227/227/1
f 155/155/1 228/228/1 156/156/1
f 155/155/1 227/227/1 228/228/1
f 156/156/1 229/229/1 157/157/1
f 156/156/1 228/228/1 229/229/1
f 157/157/1 230/230/1 158/158/1
f 157/157/1 229/229/1 230/230/1
f 158/158/1 231/231/1 159/159/1
f 158/158/1 230/230/1 231/231/1
f 159/159/1 232/232/1 160/160/1
f 159/159/1 231/231/1 232/232/1
f 160/160/1 233/233/1 161/161/1
f 160/160/1 232/232/1 233/233/1
f 161/161/1 234/234/1 162/162/1
f 161/161/1 233/233/1 234/234/1
f 162/162/1 235/235/1 163/163/1
f 162/162/1 234/234/1 235/235/1
f 163/163/1 236/236/1 164/164/1
f 163/163/1 235/235/1 236/236/1
f 164/164/1 237/237/1 165/165/1
f 164/164/1 236/236/1 237/237/1
f 165/165/1 238/238/1 166/166/1
f 165/165/1 237/237/1 238/238/1
f 166/166/1 239/239/1 167/167/1
f 166/166/1 238/238/1 239/239/1
f 167/167/1 240/240/1 168/168/1
f 167/167/1 239/239/1 240/240/1
f 168/168/1 241/241/1 169/169/1
f 168/168/1 240/240/1 241/241/1
f 169/169/1 242/242/1 170/170/1
f 169/169/1 241/241/1 242/242/1
f 170/170/1 243/243/1 171/171/1
f 170/170/1 242/242/1 243/243/1
f 171/171/1 244/244/1 172/172/1
f 171/171/1 243/243/1 244/244/1
f 172/172/1 245/245/1 173/173/1
f 172/172/1 244/244/1 245/245/1
f 173/173/1 246/246/1 174/174/1
f 173/173/1 245/245/1 246/246/1
f 174/174/1 247/247/1 175/175/1
f 174/174/1 246/246/1 247/247/1
f 175/175/1 248/248/1 176/176/1
f 175/175/1 247/247/1 248/248/1
f 176/176/1 249/249/1 177/177/1
f 176/176/1 248/248/1 249/249/1
f 177/177/1 250/250/1 178/178/1
f 177/177/1 249/249/1 250/250/1
f 178/178/1 251/251/1 179/179/1
f 178/178/1 250/250/1 251/251/1
f 179/179/1 252/252/1 180/180/1
f 179/179/1 251/251/1 252/252/1
f 180/180/1 253/253/1 181/181/1
f 180/180/1 252/252/1 253/253/1
f 181/181/1 254/254/1 182/182/1
f 181/181/1 253/253/1 254/254/1
f 182/182/1 255/255/1 183/183/1
f 182/182/1 254/254/1 255/255/1
f 183/183/1 256/256/1 184/184/1
f 183/183/1 255/255/1 256/256/1
f 184/184/1 257/257/1 185/185/1
f 184/184/1 256/256/1 257/257/1
f 185/185/1 258/258/1 186/186/1
f 185/185/1 257/257/1 258/258/1
f 186/186/1 259/259/1 187/187/1
f 186/186/1 258/258/1 259/259/1
f 187/187/1 260/260/1 188/188/1
f 187/187/1 259/259/1 260/260/1
f 188/188/1 261/261/1 189/189/1
f 188/188/1 260/260/1 261/261/1
f 189/189/1 262/262/1 190/190/1
f 189/189/1 261/261/1 262/262/1
f 190/190/1 263/263/1 191/191/1
f 190/190/1 262/262/1 263/263/1
f 191/191/1 264/264/1 192/192/1
f 191/191/1 263/263/1 264/264/1
f 192/192/1 265/265/1 193/193/1
f 192/192/1 264/264/1 265/265/1
f 193/193/1 266/266/1 194/194/1
f 193/193/1 265/265/1 266/266/1
f 194/194/1 267/267/1 195/195/1
f 194/194/1 266/266/1 267/267/1
f 195/195/1 268/268/1 196/196/1
f 195/195/1 267/267/1 268/268/1
f 196/196/1 269/269/1 197/197/1
f 196/196/1 268/268/1 269/269/1
f 197/197/1 270/270/1 198/198/1
f 197/197/1 269/269/1 270/270/1
f 198/198/1 271/271/1 199/199/1
f 198/198/1 270/270/1 271/271/1
f 199/199/1 272/272/1 200/200/1
f 199/199/1 271/271/1 272/272/1
f 200/200/1 273/273/1 201/201/1
f 200/200/1 272/272/1 273/273/1
f 201/201/1 274/274/1 202/202/1
f 201/201/1 273/273/1 274/274/1
f 202/202/1 275/275/1 203/203/1
f 202/202/1 274/274/1 275/275/1
f 203/203/1 276/276/1 204/204/1
f 203/203/1 275/275/1 276/276/1
f 204/204/1 277/277/1 205/205/1
f 204/204/1 276/276/1 277/277/1
f 205/205/1 278/278/1 206/206/1
f 205/205/1 277/277/1 278/278/1
f 206/206/1 279/279/1 207/207/1
f 206/206/1 278/278/1 279/279/1
f 207/207/1 280/280/1 208/208/1
f 207/207/1 279/279/1 280/280/1
f 208/208/1 281/281/1 209/209/1
f 208/208/1 280/280/1 281/281/1
f 209/209/1 282/282/1 210/210/1
f 209/209/1 281/281/1 282/282/1
f 210/210/1 283/283/1 211/211/1
f 210/210/1 282/282/1 283/283/1
f 211/211/1 284/284/1 212/212/1
f 211/211/1 283/283/1 284/284/1
f 212/212/1 285/285/1 213/213/1
f 212/212/1 284/284/1 285/285/1
f 213/213/1 286/286/1 214/214/1
f 213/213/1 285/285/1 286/286/1
f 214/214/1 287/287/1 215/215/1
f 214/214/1 286/286/1 287/287/1
f 215/215/1 288/288/1 216/216/1
f 215/215/1 287/287/1 288/288/1
f 216/216/1 289/289/1 217/217/1
f 216/216/1 288/288/1 289/289/1
f 217/217/1 218/218/1 146/146/1
f 217/217/1 289/289/1 218/218/1
f 218/218/1 291/291/1 219/219/1
f 218/218/1 290/290/1 291/291/1
f 219/219/1 292/292/1 220/220/1
f 219/219/1 291/291/1 292/292/1
f 220/220/1 293/293/1 221/221/1
f 220/220/1 292/292/1 293/293/1
f 221/221/1 294/294/1 222/222/1
f 221/221/1 293/293/1 294/294/1
f 222/222/1 295/295/1 223/223/1
f 222/222/1 294/294/1 295/295/1
f 223/223/1 296/296/1 224/224/1
f 223/223/1 295/295/1 296/296/1
f 224/224/1 297/297/1 225/225/1
f 224/224/1 296/296/1 297/297/1
f 225/225/1 298/298/1 226/226/1
f 225/225/1 297/297/1 298/298/1
f 226/226/1 299/299/1 227/227/1
f 226/226/1 298/298/1 299/299/1
f 227/227/1 300/300/1 228/228/1
f 227/227/1 299/299/1 300/300/1
f 228/228/1 301/301/1 229/229/1
f 228/228/1 300/300/1 301/301/1
f 229/229/1 302/302/1 230/230/1
f 229/229/1 301/301/1 302/302/1
f 230/230/1 303/303/1 231/231/1
f 230/230/1 302/302/1 303/303/1
f 231/231/1 304/304/1 232/232/1
f 231/231/1 303/303/1 304/304/1
f 232/232/1 305/305/1 233/233/1
f 232/232/1 304/304/1 305/305/1
f 233/233/1 306/306/1 234/234/1
f 233/233/1 305/305/1 306/306/1
f 234/234/1 307/307/1 235/235/1
f 234/234/1 306/306/1 307/307/1
f 235/235/1 308/308/1 236/236/1
f 235/235/1 307/307/1 308/308/1
f 236/236/1 309/309/1 237/237/1
f 236/236/1 308/308/1 309/309/1
f 237/237/1 310/310/1 238/238/1
f 237/237/1 309/309/1 310/310/1
f 238/238/1 311/311/1 239/239/1
f 238/238/1 310/310/1 311/311/1
f 239/239/1 312/312/1 240/240/1
f 239/239/1 311/311/1 312/312/1
f 240/240/1 313/313/1 241/241/1
f 240/240/1 312/312/1 313/313/1
f 241/241/1 314/314/1 242/242/1
f 241/241/1 313/313/1 314/314/1
f 242/242/1 315/315/1 243/243/1
f 242/242/1 314/314/1 315/315/1
f 243/243/1 316/316/1 244/244/1
f 243/243/1 315/315/1 316/316/1
f 244/244/1 317/317/1 245/245/1
f 244/244/1 316/316/1 317/317/1
f 245/245/1 318/318/1 246/246/1
f 245/245/1 317/317/1 318/318/1
f 246/246/1 319/319/1 247/247/1
f 246/246/1 318/318/1 319/319/1
f 247/247/1 320/320/1 248/248/1
f 247/247/1 319/319/1 320/320/1
f 248/248/1 321/321/1 249/249/1
f 248/248/1 320/320/1 321/321/1
f 249/249/1 322/322/1 250/250/1
f 249/249/1 321/321/1 322/322/1
f 250/250/1 323/323/1 251/251/1
f 250/250/1 322/322/1 323/323/1
f 251/251/1 324/324/1 252/252/1
f 251/251/1 323/323/1 324/324/1
f 252/252/1 325/325/1 253/253/1
f 252/252/1 324/324/1 325/325/1
f 253/253/1 326/326/1 254/254/1
f 253/253/1 325/325/1 326/326/1
f 254/254/1 327/327/1 255/255/1
f 254/254/1 326/326/1 327/327/1
f 255/255/1 328/328/1 256/256/1
f 255/255/1 327/327/1 328/328/1
f 256/256/1 329/329/1 257/257/1
f 256/256/1 328/328/1 329/329/1
f 257/257/1 330/330/1 258/258/1
f 257/257/1 329/329/1 330/330/1
f 258/258/1 331/331/1 259/259/1
f 258/258/1 330/330/1 331/331/1
f 259/259/1 332/332/1 260/260/1
f 259/259/1 331/331/1 332/332/1
f 260/260/1 333/333/1 261/261/1
f 260/260/1 332/332/1 333/333/1
f 261/261/1 334/334/1 262/262/1
f 261/261/1 333/333/1 334/334/1
f 262/262/1 335/335/1 263/263/1
f 262/262/1 334/334/1 335/335/1
f 263/263/1 336/336/1 264/264/1
f 263/263/1 335/335/1 336/336/1
f 264/264/1 337/337/1 265/265/1
f 264/264/1 336/336/1 337/337/1
f 265/265/1 338/338/1 266/266/1
f 265/265/1 337/337/1 338/338/1
f 266/266/1 339/339/1 267/267/1
f 266/266/1 338/338/1 339/339/1
f 267/267/1 340/340/1 268/268/1
f 267/267/1 339/339/1 340/340/1
f 268/268/1 341/341/1 269/269/1
f 268/268/1 340/340/1 341/341/1
f 269/269/1 342/342/1 270/270/1
f 269/269/1 341/341/1 342/342/1
f 270/270/1 343/343/1 271/271/1
f 270/270/1 342/342/1 343/343/1
f 271/271/1 344/344/1 272/272/1
f 271/271/1 343/343/1 344/344/1
f 272/272/1 345/345/1 273/273/1
f 272/272/1 344/344/1 345/345/1
f 273/273/1 346/346/1 274/274/1
f 273/273/1 345/345/1 346/346/1
f 274/274/1 347/347/1 275/275/1
f 274/274/1 346/346/1 347/347/1
f 275/275/1 348/348/1 276/276/1
f 275/275/1 347/347/1 348/348/1
f 276/276/1 349/349/1 277/277/1
f 276/276/1 348/348/1 349/349/1
f 277/277/1 350/350/1 278/278/1
f 277/277/1 349/349/1 350/350/1
f 278/278/1 351/351/1 279/279/1
f 278/278/1 350/350/1 351/351/1
f 279/279/1 352/352/1 280/280/1
f 279/279/1 351/351/1 352/352/1
f 280/280/1 353/353/1 281/281/1
f 280/280/1 352/352/1 353/353/1
f 281/281/1 354/354/1 282/282/1
f 281/281/1 353/353/1 354/354/1
f 282/282/1 355/355/1 283/283/1
f 282/282/1 354/354/1 355/355/1
f 283/283/1 356/356/1 284/284/1
f 283/283/1 355/355/1 356/356/1
f 284/284/1 357/357/1 285/285/1
f 284/284/1 356/356/1 357/357/1
f 285/285/1 358/358/1 286/286/1
f 285/285/1 357/357/1 358/358/1
f 286/286/1 359/359/1 287/287/1
f 286/286/1 358/358/1 359/359/1
f 287/287/1 360/360/1 288/288/1
f 287/287/1 359/359/1 360/360/1
f 288/288/1 361/361/1 289/289/1
f 288/288/1 360/360/1 361/361/1
f 289/289/1 290/290/1 218/218/1
f 289/289/1 361/361/1 290/290/1
f 290/290/1 363/363/1 291/291/1
f 290/290/1 362/362/1 363/363/1
f 291/291/1 364/364/1 292/292/1
f 291/291/1 363/363/1 364/364/1
f 292/292/1 365/365/1 293/293/1
f 292/292/1 364/364/1 365/365/1
f 293/293/1 366/366/1 294/294/1
f 293/293/1 365/365/1 366/366/1
f 294/294/1 367/367/1 295/295/1
f 294/294/1 366/366/1 367/367/1
f 295/295/1 368/368/1 296/296/1
f 295/295/1 367/367/1 368/368/1
f 296/296/1 369/369/1 297/297/1
f 296/296/1 368/368/1 369/369/1
f 297/297/1 370/370/1 298/298/1
f 297/297/1 369/369/1 370/370/1
f 298/298/1 371/371/1 299/299/1
f 298/298/1 370/370/1 371/371/1
f 299/299/1 372/372/1 300/300/1
f 299/299/1 371/371/1 372/372/1
f 300/300/1 373/373/1 301/301/1
f 300/300/1 372/372/1 373/373/1
f 301/301/1 374/374/1 302/302/1
f 301/301/1 373/373/1 374/374/1
f 302/302/1 375/375/1 303/303/1
f 302/302/1 374/374/1 375/375/1
f 303/303/1 376/376/1 304/304/1
f 303/303/1 375/375/1 376/376/1
f 304/304/1 377/377/1 305/305/1
f 304/304/1 376/376/1 377/377/1
f 305/305/1 378/378/1 306/306/1
f 305/305/1 377/377/1 378/378/1
f 306/306/1 379/379/1 307/307/1
f 306/306/1 378/378/1 379/379/1
f 307/307/1 380/380/1 308/308/1
f 307/307/1 379/379/1 380/380/1
f 308/308/1 381/381/1 309/309/1
f 308/308/1 380/380/1 381/381/1
f 309/309/1 382/382/1 310/310/1
f 309/309/1 381/381/1 382/382/1
f 310/310/1 383/383/1 311/311/1
f 310/310/1 382/382/1 383/383/1
f 311/311/1 384/384/1 312/312/1
f 311/311/1 383/383/1 384/384/1
f 312/312/1 385/385/1 313/313/1
f 312/312/1 384/384/1 385/385/1
f 313/313/1 386/386/1 314/314/1
f 313/313/1 385/385/1 386/386/1
f 314/314/1 387/387/1 315/315/1
f 314/314/1 386/386/1 387/387/1
f 315/315/1 388/388/1 316/316/1
f 315/315/1 387/387/1 388/388/1
f 316/316/1 389/389/1 317/317/1
f 316/316/1 388/388/1 389/389/1
f 317/317/1 390/390/1 318/318/1
f 317/317/1 389/389/1 390/390/1
f 318/318/1 391/391/1 319/319/1
f 318/318/1 390/390/1 391/391/1
f 319/319/1 392/392/1 320/320/1
f 319/319/1 391/391/1 392/392/1
f 320/320/1 393/393/1 321/321/1
f 320/320/1 392/392/1 393/393/1
f 321/321/1 394/394/1 322/322/1
f 321/321/1 393/393/1 394/394/1
f 322/322/1 395/395/1 323/323/1
f 322/322/1 394/394/1 395/395/1
f 323/323/1 396/396/1 324/324/1
f 323/323/1 395/395/1 396/396/1
f 324/324/1 397/397/1 325/325/1
f 324/324/1 396/396/1 397/397/1
f 325/325/1 398/398/1 326/326/1
f 325/325/1 397/397/1 398/398/1
f 326/326/1 399/399/1 327/327/1
f 326/326/1 398/398/1 399/399/1
f 327/327/1 400/400/1 328/328/1
f 327/327/1 399/399/1 400/400/1
f 328/328/1 401/401/1 329/329/1
f 328/328/1 400/400/1 401/401/1
f 329/329/1 402/402/1 330/330/1
f 329/329/1 401/401/1 402/402/1
f 330/330/1 403/403/1 331/331/1
f 330/330/1 402/402/1 403/403/1
f 331/331/1 404/404/1 332/332/1
f 331/331/1 403/403/1 404/404/1
f 332/332/1 405/405/1 333/333/1
f 332/332/1 404/404/1 405/405/1
f 333/333/1 406/406/1 334/334/1
f 333/333/1 405/405/1 406/406/1
f 334/334/1 407/407/1 335/335/1
f 334/334/1 406/406/1 407/407/1
f 335/335/1 408/408/1 336/336/1
f 335/335/1 407/407/1 408/408/1
f 336/336/1 409/409/1 337/337/1
f 336/336/1 408/408/1 409/409/1
f 337/337/1 410/410/1 338/338/1
f 337/337/1 409/409/1 410/410/1
f 338/338/1 411/411/1 339/339/1
f 338/338/1 410/410/1 411/411/1
f 339/339/1 412/412/1 340/340/1
f 339/339/1 411/411/1 412/412/1
f 340/340/1 413/413/1 341/341/1
f 340/340/1 412/412/1 413/413/1
f 341/341/1 414/414/1 342/342/1
f 341/341/1 413/413/1 414/414/1
f 342/342/1 415/415/1 343/343/1
f 342/342/1 414/414/1 415/415/1
f 343/343/1 416/416/1 344/344/1
f 343/343/1 415/415/1 416/416/1
f 344/344/1 417/417/1 345/345/1
f 344/344/1 416/416/1 417/417/1
f 345/345/1 418/418/1 346/346/1
f 345/345/1 417/417/1 418/418/1
f 346/346/1 419/419/1 347/347/1
f 346/346/1 418/418/1 419/419/1
f 347/347/1 420/420/1 348/348/1
f 347/347/1 419/419/1 420/420/1
f 348/348/1 421/421/1 349/349/1
f 348/348/1 420/420/1 421/421/1
f 349/349/1 422/422/1 350/350/1
f 349/349/1 421/421/1 422/422/1
f 350/350/1 423/423/1 351/351/1
f 350/350/1 422/422/1 423/423/1
f 351/351/1 424/424/1 352/352/1
f 351/351/1 423/423/1 424/424/1
f 352/352/1 425/425/1 353/353/1
f 352/352/1 424/424/1 425/425/1
f 353/353/1 426/426/1 354/354/1
f 353/353/1 425/425/1 426/426/1
f 354/354/1 427/427/1 355/355/1
f 354/354/1 426/426/1 427/427/1
f 355/355/1 428/428/1 356/356/1
f 355/355/1 427/427/1 428/428/1
f 356/356/1 429/429/1 357/357/1
f 356/356/1 428/428/1 429/429/1
f 357/357/1 430/430/1 358/358/1
f 357/357/1 429/429/1 430/430/1
f 358/358/1 431/431/1 359/359/1
f 358/358/1 430/430/1 431/431/1
f 359/359/1 432/432/1 360/360/1
f 359/359/1 431/431/1 432/432/1
f 360/360/1 433/433/1 361/361/1
f 360/360/1 432/432/1 433/433/1
f 361/361/1 362/362/1 290/290/1
f 361/361/1 433/433/1 362/362/1
f 362/362/1 435/435/1 363/363/1
f 362/362/1 434/434/1 435/435/1
f 363/363/1 436/436/1 364/364/1
f 363/363/1 435/435/1 436/436/1
f 364/364/1 437/437/1 365/365/1
f 364/364/1 436/436/1 437/437/1
f 365/365/1 438/438/1 366/366/1
f 365/365/1 437/437/1 438/438/1
f 366/366/1 439/439/1 367/367/1
f 366/366/1 438/438/1 439/439/1
f 367/367/1 440/440/1 368/368/1
f 367/367/1 439/439/1 440/440/1
f 368/368/1 441/441/1 369/369/1
f 368/368/1 440/440/1 441/441/1
f 369/369/1 442/442/1 370/370/1
f 369/369/1 441/441/1 442/442/1
f 370/370/1 443/443/1 371/371/1
f 370/370/1 442/442/1 443/443/1
f 371/371/1 444/444/1 372/372/1
f 371/371/1 443/443/1 444/444/1
f 372/372/1 445/445/1 373/373/1
f 372/372/1 444/444/1 445/445/1
f 373/373/1 446/446/1 374/374/1
f 373/373/1 445/445/1 446/446/1
f 374/374/1 447/447/1 375/375/1
f 374/374/1 446/446/1 447/447/1
f 375/375/1 448/448/1 376/376/1
f 375/375/1 447/447/1 448/448/1
f 376/376/1 449/449/1 377/377/1
f 376/376/1 448/448/1 449/449/1
f 377/377/1 450/450/1 378/378/1
f 377/377/1 449/449/1 450/450/1
f 378/378/1 451/451/1 379/379/1
f 378/378/1 450/450/1 451/451/1
f 379/379/1 452/452/1 380/380/1
f 379/379/1 451/451/1 452/452/1
f 380/380/1 453/453/1 381/381/1
f 380/380/1 452/452/1 453/453/1
f 381/381/1 454/454/1 382/382/1
f 381/381/1 453/453/1 454/454/1
f 382/382/1 455/455/1 383/383/1
f 382/382/1 454/454/1 455/455/1
f 383/383/1 456/456/1 384/384/1
f 383/383/1 455/455/1 456/456/1
f 384/384/1 457/457/1 385/385/1
f 384/384/1 456/456/1 457/457/1
f 385/385/1 458/458/1 386/386/1
f 385/385/1 457/457/1 458/458/1
f 386/386/1 459/459/1 387/387/1
f 386/386/1 458/458/1 459/459/1
f 387/387/1 460/460/1 388/388/1
f 387/387/1 459/459/1 460/460/1
f 388/388/1 461/461/1 389/389/1
f 388/388/1 460/460/1 461/461/1
f 389/389/1 462/462/1 390/390/1
f 389/389/1 461/461/1 462/462/1
f 390/390/1 463/463/1 391/391/1
f 390/390/1 462/462/1 463/463/1
f 391/391/1 464/464/1 392/392/1
f 391/391/1 463/463/1 464/464/1
f 392/392/1 465/465/1 393/393/1
f 392/392/1 464/464/1 465/465/1
f 393/393/1 466/466/1 394/394/1
f 393/393/1 465/465/1 466/466/1
f 394/394/1 467/467/1 395/395/1
f 394/394/1 466/466/1 467/467/1
f 395/395/1 468/468/1 396/396/1
f 395/395/1 467/467/1 468/468/1
f 396/396/1 469/469/1 397/397/1
f 396/396/1 468/468/1 469/469/1
f 397/397/1 470/470/1 398/398/1
f 397/397/1 469/469/1 470/470/1
f 398/398/1 471/471/1 399/399/1
f 398/398/1 470/470/1 471/471/1
f 399/399/1 472/472/1 400/400/1
f 399/399/1 471/471/1 472/472/1
f 400/400/1 473/473/1 401/401/1
f 400/400/1 472/472/1 473/473/1
f 401/401/1 474/474/1 402/402/1
f 401/401/1 473/473/1 474/474/1
f 402/402/1 475/475/1 403/403/1
f 402/402/1 474/474/1 475/475/1
f 403/403/1 476/476/1 404/404/1
f 403/403/1 475/475/1 476/476/1
f 404/404/1 477/477/1 405/405/1
f 404/404/1 476/476/1 477/477/1
f 405/405/1 478/478/1 406/406/1
f 405/405/1 477/477/1 478/478/1
f 406/406/1 479/479/1 407/407/1
f 406/406/1 478/478/1 479/479/1
f 407/407/1 480/480/1 408/408/1
f 407/407/1 479/479/1 480/480/1
f 408/408/1 481/481/1 409/409/1
f 408/408/1 480/480/1 481/481/1
f 409/409/1 482/482/1 410/410/1
f 409/409/1 481/481/1 482/482/1
f 410/410/1 483/483/1 411/411/1
f 410/410/1 482/482/1 483/483/1
f 411/411/1 484/484/1 412/412/1
f 411/411/1 483/483/1 484/484/1
f 412/412/1 485/485/1 413/413/1
f 412/412/1 484/484/1 485/485/1
f 413/413/1 486/486/1 414/414/1
f 413/413/1 485/485/1 486/486/1
f 414/414/1 487/487/1 415/415/1
f 414/414/1 486/486/1 487/487/1
f 415/415/1 488/488/1 416/416/1
f 415/415/1 487/487/1 488/488/1
f 416/416/1 489/489/1 417/417/1
f 416/416/1 488/488/1 489/489/1
f 417/417/1 490/490/1 418/418/1
f 417/417/1 489/489/1 490/490/1
f 418/418/1 491/491/1 419/419/1
f 418/418/1 490/490/1 491/491/1
f 419/419/1 492/492/1 420/420/1
f 419/419/1 491/491/1 492/492/1
f 420/420/1 493/493/1 421/421/1
f 420/420/1 492/492/1 493/493/1
f 421/421/1 494/494/1 422/422/1
f 421/421/1 493/493/1 494/494/1
f 422/422/1 495/495/1 423/423/1
f 422/422/1 494/494/1 495/495/1
f 423/423/1 496/496/1 424/424/1
f 423/423/1 495/495/1 496/496/1
f 424/424/1 497/497/1 425/425/1
f 424/424/1 496/496/1 497/497/1
f 425/425/1 498/498/1 426/426/1
f 425/425/1 497/497/1 498/498/1
f 426/426/1 499/499/1 427/427/1
f 426/426/1 498/498/1 499/499/1
f 427/427/1 500/500/1 428/428/1
f 427/427/1 499/499/1 500/500/1
f 428/428/1 501/501/1 429/429/1
f 428/428/1 500/500/1 501/501/1
f 429/429/1 502/502/1 430/430/1
f 429/429/1 501/501/1 502/502/1
f 430/430/1 503/503/1 431/431/1
f 430/430/1 502/502/1 503/503/1
f 431/431/1 504/504/1 432/432/1
f 431/431/1 503/503/1 504/504/1
f 432/432/1 505/505/1 433/433/1
f 432/432/1 504/504/1 505/505/1
f 433/433/1 434/434/1 362/362/1
f 433/433/1 505/505/1 434/434/1
f 434/434/1 507/507/1 435/435/1
f 434/434/1 506/506/1 507/507/1
f 435/435/1 508/508/1 436/436/1
f 435/435/1 507/507/1 508/508/1
f 436/436/1 509/509/1 437/437/1
f 436/436/1 508/508/1 509/509/1
f 437/437/1 510/510/1 438/438/1
f 437/437/1 509/509/1 510/510/1
f 438/438/1 511/511/1 439/439/1
f 438/438/1 510/510/1 511/511/1
f 439/439/1 512/512/1 440/440/1
f 439/439/1 511/511/1 512/512/1
f 440/440/1 513/513/1 441/441/1
f 440/440/1 512/512/1 513/513/1
f 441/441/1 514/514/1 442/442/1
f 441/441/1 513/513/1 514/514/1
f 442/442/1 515/515/1 443/443/1
f 442/442/1 514/514/1 515/515/1
f 443/443/1 516/516/1 444/444/1
f 443/443/1 515/515/1 516/516/1
f 444/444/1 517/517/1 445/445/1
f 444/444/1 516/516/1 517/517/1
f 445/445/1 518/518/1 446/446/1
f 445/445/1 517/517/1 518/518/1
f 446/446/1 519/519/1 447/447/1
f 446/446/1 518/518/1 519/519/1
f 447/447/1 520/520/1 448/448/1
f 447/447/1 519/519/1 520/520/1
f 448/448/1 521/521/1 449/449/1
f 448/448/1 520/520/1 521/521/1
f 449/449/1 522/522/1 450/450/1
f 449/449/1 521/521/1 522/522/1
f 450/450/1 523/523/1 451/451/1
f 450/450/1 522/522/1 523/523/1
f 451/451/1 524/524/1 452/452/1
f 451/451/1 523/523/1 524/524/1
f 452/452/1 525/525/1 453/453/1
f 452/452/1 524/524/1 525/525/1
f 453/453/1 526/526/1 454/454/1
f 453/453/1 525/525/1 526/526/1
f 454/454/1 527/527/1 455/455/1
f 454/454/1 526/526/1 527/527/1
f 455/455/1 528/528/1 456/456/1
f 455/455/1 527/527/1 528/528/1
f 456/456/1 529/529/1 457/457/1
f 456/456/1 528/528/1 529/529/1
f 457/457/1 530/530/1 458/458/1
f 457/457/1 529/529/1 530/530/1
f 458/458/1 531/531/1 459/459/1
f 458/458/1 530/530/1 531/531/1
f 459/459/1 532/532/1 460/460/1
f 459/459/1 531/531/1 532/532/1
f 460/460/1 533/533/1 461/461/1
f 460/460/1 532/532/1 533/533/1
f 461/461/1 534/534/1 462/462/1
f 461/461/1 533/533/1 534/534/1
f 462/462/1 535/535/1 463/463/1
f 462/462/1 534/534/1 535/535/1
f 463/463/1 536/536/1 464/464/1
f 463/463/1 535/535/1 536/536/1
f 464/464/1 537/537/1 465/465/1
f 464/464/1 536/536/1 537/537/1
f 465/465/1 538/538/1 466/466/1
f 465/465/1 537/537/1 538/538/1
f 466/466/1 539/539/1 467/467/1
f 466/466/1 538/538/1 539/539/1
f 467/467/1 540/540/1 468/468/1
f 467/467/1 539/539/1 540/540/1
f 468/468/1 541/541/1 469/469/1
f 468/468/1 540/540/1 541/541/1
f 469/469/1 542/542/1 470/470/1
f 469/469/1 541/541/1 542/542/1
f 470/470/1 543/543/1 471/471/1
f 470/470/1 542/542/1 543/543/1
f 471/471/1 544/544/1 472/472/1
f 471/471/1 543/543/1 544/544/1
f 472/472/1 545/545/1 473/473/1
f 472/472/1 544/544/1 545/545/1
f 473/473/1 546/546/1 474/474/1
f 473/473/1 545/545/1 546/546/1
f 474/474/1 547/547/1 475/475/1
f 474/474/1 546/546/1 547/547/1
f 475/475/1 548/548/1 476/476/1
f 475/475/1 547/547/1 548/548/1
f 476/476/1 549/549/1 477/477/1
f 476/476/1 548/548/1 549/549/1
f 477/477/1 550/550/1 478/478/1
f 477/477/1 549/549/1 550/550/1
f 478/478/1 551/551/1 479/479/1
f 478/478/1 550/550/1 551/551/1
f 479/479/1 552/552/1 480/480/1
f 479/479/1 551/551/1 552/552/1
f 480/480/1 553/553/1 481/481/1
f 480/480/1 552/552/1 553/553/1
f 481/481/1 554/554/1 482/482/1
f 481/481/1 553/553/1 554/554/1
f 482/482/1 555/555/1 483/483/1
f 482/482/1 554/554/1 555/555/1
f 483/483/1 556/556/1 484/484/1
f 483/483/1 555/555/1 556/556/1
f 484/484/1 557/557/1 485/485/1
f 484/484/1 556/556/1 557/557/1
f 485/485/1 558/558/1 486/486/1
f 485/485/1 557/557/1 558/558/1
f 486/486/1 559/559/1 487/487/1
f 486/486/1 558/558/1 559/559/1
f 487/487/1 560/560/1 488/488/1
f 487/487/1 559/559/1 560/560/1
f 488/488/1 561/561/1 489/489/1
f 488/488/1 560/560/1 561/561/1
f 489/489/1 562/562/1 490/490/1
f 489/489/1 561/561/1 562/562/1
f 490/490/1 563/563/1 491/491/1
f 490/490/1 562/562/1 563/563/1
f 491/491/1 564/564/1 492/492/1
f 491/491/1 563/563/1 564/564/1
f 492/492/1 565/565/1 493/493/1
f 492/492/1 564/564/1 565/565/1
f 493/493/1 566/566/1 494/494/1
f 493/493/1 565/565/1 566/566/1
f 494/494/1 567/567/1 495/495/1
f 494/494/1 566/566/1 567/567/1
f 495/495/1 568/568/1 496/496/1
f 495/495/1 567/567/1 568/568/1
f 496/496/1 569/569/1 497/497/1
f 496/496/1 568/568/1 569/569/1
f 497/497/1 570/570/1 498/498/1
f 497/497/1 569/569/1 570/570/1
f 498/498/1 571/571/1 499/499/1
f 498/498/1 570/570/1 571/571/1
f 499/499/1 572/572/1 500/500/1
f 499/499/1 571/571/1 572/572/1
f 500/500/1 573/573/1 501/501/1
f 500/500/1 572/572/1 573/573/1
f 501/501/1 574/574/1 502/502/1
f 501/501/1 573/573/1 574/574/1
f 502/502/1 575/575/1 503/503/1
f 502/502/1 574/574/1 575/575/1
f 503/503/1 576/576/1 504/504/1
f 503/503/1 575/575/1 576/576/1
f 504/504/1 577/577/1 505/505/1
f 504/504/1 576/576/1 577/577/1
f 505/505/1 506/506/1 434/434/1
f 505/505/1 577/577/1 506/506/1
f 506/506/1 579/579/1 507/507/1
f 506/506/1 578/578/1 579/579/1
f 507/507/1 580/580/1 508/508/1
f 507/507/1 579/579/1 580/580/1
f 508/508/1 581/581/1 509/509/1
f 508/508/1 580/580/1 581/581/1
f 509/509/1 582/582/1 510/510/1
f 509/509/1 581/581/1 582/582/1
f 510/510/1 583/583/1 511/511/1
f 510/510/1 582/582/1 583/583/1
f 511/511/1 584/584/1 512/512/1
f 511/511/1 583/583/1 584/584/1
f 512/512/1 585/585/1 513/513/1
f 512/512/1 584/584/1 585/585/1
f 513/513/1 586/586/1 514/514/1
f 513/513/1 585/585/1 586/586/1
f 514/514/1 587/587/1 515/515/1
f 514/514/1 586/586/1 587/587/1
f 515/515/1 588/588/1 516/516/1
f 515/515/1 587/587/1 588/588/1
f 516/516/1 589/589/1 517/517/1
f 516/516/1 588/588/1 589/589/1
f 517/517/1 590/590/1 518/518/1
f 517/517/1 589/589/1 590/590/1
f 518/518/1 591/591/1 519/519/1
f 518/518/1 590/590/1 591/591/1
f 519/519/1 592/592/1 520/520/1
f 519/519/1 591/591/1 592/592/1
f 520/520/1 593/593/1 521/521/1
f 520/520/1 592/592/1 593/593/1
f 521/521/1 594/594/1 522/522/1
f 521/521/1 593/593/1 594/594/1
f 522/522/1 595/595/1 523/523/1
f 522/522/1 594/594/1 595/595/1
f 523/523/1 596/596/1 524/524/1
f 523/523/1 595/595/1 596/596/1
f 524/524/1 597/597/1 525/525/1
f 524/524/1 596/596/1 597/597/1
f 525/525/1 598/598/1 526/526/1
f 525/525/1 597/597/1 598/598/1
f 526/526/1 599/599/1 527/527/1
f 526/526/1 598/598/1 599/599/1
f 527/527/1 600/600/1 528/528/1
f 527/527/1 599/599/1 600/600/1
f 528/528/1 601/601/1 529/529/1
f 528/528/1 600/600/1 601/601/1
f 529/529/1 602/602/1 530/530/1
f 529/529/1 601/601/1 602/602/1
f 530/530/1 603/603/1 531/531/1
f 530/530/1 602/602/1 603/603/1
f 531/531/1 604/604/1 532/532/1
f 531/531/1 603/603/1 604/604/1
f 532/532/1 605/605/1 533/533/1
f 532/532/1 604/604/1 605/605/1
f 533/533/1 606/606/1 534/534/1
f 533/533/1 605/605/1 606/606/1
f 534/534/1 607/607/1 535/535/1
f 534/534/1 606/606/1 607/607/1
f 535/535/1 608/608/1 536/536/1
f 535/535/1 607/607/1 608/608/1
f 536/536/1 609/609/1 537/537/1
f 536/536/1 608/608/1 609/609/1
f 537/537/1 610/610/1 538/538/1
f 537/537/1 609/609/1 610/610/1
f 538/538/1 611/611/1 539/539/1
f 538/538/1 610/610/1 611/611/1
f 539/539/1 612/612/1 540/540/1
f 539/539/1 611/611/1 612/612/1
f 540/540/1 613/613/1 541/541/1
f 540/540/1 612/612/1 613/613/1
f 541/541/1 614/614/1 542/542/1
f 541/541/1 613/613/1 614/614/1
f 542/542/1 615/615/1 543/543/1
f 542/542/1 614/614/1 615/615/1
f 543/543/1 616/616/1 544/544/1
f 543/543/1 615/615/1 616/616/1
f 544/544/1 617/617/1 545/545/1
f 544/544/1 616/616/1 617/617/1
f 545/545/1 618/618/1 546/546/1
f 545/545/1 617/617/1 618/618/1
f 546/546/1 619/619/1 547/547/1
f 546/546/1 618/618/1 619/619/1
f 547/547/1 620/620/1 548/548/1
f 547/547/1 619/619/1 620/620/1
f 548/548/1 621/621/1 549/549/1
f 548/548/1 620/620/1 621/621/1
f 549/549/1 622/622/1 550/550/1
f 549/549/1 621/621/1 622/622/1
f 550/550/1 623/623/1 551/551/1
f 550/550/1 622/622/1 623/623/1
f 551/551/1 624/624/1 552/552/1
f 551/551/1 623/623/1 624/624/1
f 552/552/1 625/625/1 553/553/1
f 552/552/1 624/624/1 625/625/1
f 553/553/1 626/626/1 554/554/1
f 553/553/1 625/625/1 626/626/1
f 554/554/1 627/627/1 555/555/1
f 554/554/1 626/626/1 627/627/1
f 555/555/1 628/628/1 556/556/1
f 555/555/1 627/627/1 628/628/1
f 556/556/1 629/629/1 557/557/1
f 556/556/1 628/628/1 629/629/1
f 557/557/1 630/630/1 558/558/1
f 557/557/1 629/629/1 630/630/1
f 558/558/1 631/631/1 559/559/1
f 558/558/1 630/630/1 631/631/1
f 559/559/1 632/632/1 560/560/1
f 559/559/1 631/631/1 632/632/1
f 560/560/1 633/633/1 561/561/1
f 560/560/1 632/632/1 633/633/1
f 561/561/1 634/634/1 562/562/1
f 561/561/1 633/633/1 634/634/1
f 562/562/1 635/635/1 563/563/1
f 562/562/1 634/634/1 635/635/1
f 563/563/1 636/636/1 564/564/1
f 563/563/1 635/635/1 636/636/1
f 564/564/1 637/637/1 565/565/1
f 564/564/1 636/636/1 637/637/1
f 565/565/1 638/638/1 566/566/1
f 565/565/1 637/637/1 638/638/1
f 566/566/1 639/639/1 567/567/1
f 566/566/1 638/638/1 639/639/1
f 567/567/1 640/640/1 568/568/1
f 567/567/1 639/639/1 640/640/1
f 568/568/1 641/641/1 569/569/1
f 568/568/1 640/640/1 641/641/1
f 569/569/1 642/642/1 570/570/1
f 569/569/1 641/641/1 642/642/1
f 570/570/1 643/643/1 571/571/1
f 570/570/1 642/642/1 643/643/1
f 571/571/1 644/644/1 572/572/1
f 571/571/1 643/643/1 644/644/1
f 572/572/1 645/645/1 573/573/1
f 572/572/1 644/644/1 645/645/1
f 573/573/1 646/646/1 574/574/1
f 573/573/1 645/645/1 646/646/1
f 574/574/1 647/647/1 575/575/1
f 574/574/1 646/646/1 647/647/1
f 575/575/1 648/648/1 576/576/1
f 575/575/1 647/647/1 648/648/1
f 576/576/1 649/649/1 577/577/1
f 576/576/1 648/648/1 649/649/1
f 577/577/1 578/578/1 506/506/1
f 577/577/1 649/649/1 578/578/1
f 578/578/1 651/651/1 579/579/1
f 578/578/1 650/650/1 651/651/1
f 579/579/1 652/652/1 580/580/1
f 579/579/1 651/651/1 652/652/1
f 580/580/1 653/653/1 581/581/1
f 580/580/1 652/652/1 653/653/1
f 581/581/1 654/654/1 582/582/1
f 581/581/1 653/653/1 654/654/1
f 582/582/1 655/655/1 583/583/1
f 582/582/1 654/654/1 655/655/1
f 583/583/1 656/656/1 584/584/1
f 583/583/1 655/655/1 656/656/1
f 584/584/1 657/657/1 585/585/1
f 584/584/1 656/656/1 657/657/1
f 585/585/1 658/658/1 586/586/1
f 585/585/1 657/657/1 658/658/1
f 586/586/1 659/659/1 587/587/1
f 586/586/1 658/658/1 659/659/1
f 587/587/1 660/660/1 588/588/1
f 587/587/1 659/659/1 660/660/1
f 588/588/1 661/661/1 589/589/1
f 588/588/1 660/660/1 661/661/1
f 589/589/1 662/662/1 590/590/1
f 589/589/1 661/661/1 662/662/1
f 590/590/1 663/663/1 591/591/1
f 590/590/1 662/662/1 663/663/1
f 591/591/1 664/664/1 592/592/1
f 591/591/1 663/663/1 664/664/1
f 592/592/1 665/665/1 593/593/1
f 592/592/1 664/664/1 665/665/1
f 593/593/1 666/666/1 594/594/1
f 593/593/1 665/665/1 666/666/1
f 594/594/1 667/667/1 595/595/1
f 594/594/1 666/666/1 667/667/1
f 595/595/1 668/668/1 596/596/1
f 595/595/1 667/667/1 668/668/1
f 596/596/1 669/669/1 597/597/1
f 596/596/1 668/668/1 669/669/1
f 597/597/1 670/670/1 598/598/1
f 597/597/1 669/669/1 670/670/1
f 598/598/1 671/671/1 599/599/1
f 598/598/1 670/670/1 671/671/1
f 599/599/1 672/672/1 600/600/1
f 599/599/1 671/671/1 672/672/1
f 600/600/1 673/673/1 601/601/1
f 600/600/1 672/672/1 673/673/1
f 601/601/1 674/674/1 602/602/1
f 601/601/1 673/673/1 674/674/1
f 602/602/1 675/675/1 603/603/1
f 602/602/1 674/674/1 675/675/1
f 603/603/1 676/676/1 604/604/1
f 603/603/1 675/675/1 676/676/1
f 604/604/1 677/677/1 605/605/1
f 604/604/1 676/676/1 677/677/1
f 605/605/1 678/678/1 606/606/1
f 605/605/1 677/677/1 678/678/1
f 606/606/1 679/679/1 607/607/1
f 606/606/1 678/678/1 679/679/1
f 607/607/1 680/680/1 608/608/1
f 607/607/1 679/679/1 680/680/1
f 608/608/1 681/681/1 609/609/1
f 608/608/1 680/680/1 681/681/1
f 609/609/1 682/682/1 610/610/1
f 609/609/1 681/681/1 682/682/1
f 610/610/1 683/683/1 611/611/1
f 610/610/1 682/682/1 683/683/1
f 611/611/1 684/684/1 612/612/1
f 611/611/1 683/683/1 684/684/1
f 612/612/1 685/685/1 613/613/1
f 612/612/1 684/684/1 685/685/1
f 613/613/1 686/686/1 614/614/1
f 613/613/1 685/685/1 686/686/1
f 614/614/1 687/687/1 615/615/1
f 614/614/1 686/686/1 687/687/1
f 615/615/1 688/688/1 616/616/1
f 615/615/1 687/687/1 688/688/1
f 616/616/1 689/689/1 617/617/1
f 616/616/1 688/688/1 689/689/1
f 617/617/1 690/690/1 618/618/1
f 617/617/1 689/689/1 690/690/1
f 618/618/1 691/691/1 619/619/1
f 618/618/1 690/690/1 691/691/1
f 619/619/1 692/692/1 620/620/1
f 619/619/1 691/691/1 692/692/1
f 620/620/1 693/693/1 621/621/1
f 620/620/1 692/692/1 693/693/1
f 621/621/1 694/694/1 622/622/1
f 621/621/1 693/693/1 694/694/1
f 622/622/1 695/695/1 623/623/1
f 622/622/1 694/694/1 695/695/1
f 623/623/1 696/696/1 624/624/1
f 623/623/1 695/695/1 696/696/1
f 624/624/1 697/697/1 625/625/1
f 624/624/1 696/696/1 697/697/1
f 625/625/1 698/698/1 626/626/1
f 625/625/1 697/697/1 698/698/1
f 626/626/1 699/699/1 627/627/1
f 626/626/1 698/698/1 699/699/1
f 627/627/1 700/700/1 628/628/1
f 627/627/1 699/699/1 700/700/1
f 628/628/1 701/701/1 629/629/1
f 628/628/1 700/700/1 701/701/1
f 629/629/1 702/702/1 630/630/1
f 629/629/1 701/701/1 702/702/1
f 630/630/1 703/703/1 631/631/1
f 630/630/1 702/702/1 703/703/1
f 631/631/1 704/704/1 632/632/1
f 631/631/1 703/703/1 704/704/1
f 632/632/1 705/705/1 633/633/1
f 632/632/1 704/704/1 705/705/1
f 633/633/1 706/706/1 634/634/1
f 633/633/1 705/705/1 706/706/1
f 634/634/1 707/707/1 635/635/1
f 634/634/1 706/706/1 707/707/1
f 635/635/1 708/708/1 636/636/1
f 635/635/1 707/707/1 708/708/1
f 636/636/1 709/709/1 637/637/1
f 636/636/1 708/708/1 709/709/1
f 637/637/1 710/710/1 638/638/1
f 637/637/1 709/709/1 710/710/1
f 638/638/1 711/711/1 639/639/1
f 638/638/1 710/710/1 711/711/1
f 639/639/1 712/712/1 640/640/1
f 639/639/1 711/711/1 712/712/1
f 640/640/1 713/713/1 641/641/1
f 640/640/1 712/712/1 713/713/1
f 641/641/1 714/714/1 642/642/1
f 641/641/1 713/713/1 714/714/1
f 642/642/1 715/715/1 643/643/1
f 642/642/1 714/714/1 715/715/1
f 643/643/1 716/716/1 644/644/1
f 643/643/1 715/715/1 716/716/1
f 644/644/1 717/717/1 645/645/1
f 644/644/1 716/716/1 717/717/1
f 645/645/1 718/718/1 646/646/1
f 645/645/1 717/717/1 718/718/1
f 646/646/1 719/719/1 647/647/1
f 646/646/1 718/718/1 719/719/1
f 647/647/1 720/720/1 648/648/1
f 647/647/1 719/719/1 720/720/1
f 648/648/1 721/721/1 649/649/1
f 648/648/1 720/720/1 721/721/1
f 649/649/1 650/650/1 578/578/1
f 649/649/1 721/721/1 650/650/1
