# Blender 3.5.0
# www.blender.org
mtllib box.mtl
o Plane
v -0.075481 2.000000 -0.532076
v -0.138744 2.000000 -0.502004
v -0.197048 2.000000 -0.453170
v -0.248152 2.000000 -0.387452
v -0.290092 2.000000 -0.307373
v -0.321256 2.000000 -0.216012
v -0.340447 2.000000 -0.116879
v -0.346927 2.000000 -0.013785
v -0.340447 2.000000 0.089310
v -0.321256 2.000000 0.188443
v -0.290092 2.000000 0.279804
v -0.248152 2.000000 0.359883
v -0.197048 2.000000 0.425601
v -0.138744 2.000000 0.474435
v -0.075481 2.000000 0.504507
v -0.009689 2.000000 0.514661
v 0.056103 2.000000 0.504507
v 0.119367 2.000000 0.474435
v 0.177671 2.000000 0.425601
v 0.228775 2.000000 0.359882
v 0.270714 2.000000 0.279803
v 0.301879 2.000000 0.188442
v 0.321069 2.000000 0.089310
v 0.327549 2.000000 -0.013785
v 0.321069 2.000000 -0.116880
v 0.301878 2.000000 -0.216012
v 0.270714 2.000000 -0.307373
v 0.228774 2.000000 -0.387452
v 0.177670 2.000000 -0.453171
v 0.119366 2.000000 -0.502004
v 0.056103 2.000000 -0.532076
v -0.009689 2.000000 -0.542229
v -0.009689 2.000000 -0.665202
v 0.071413 2.000000 -0.652686
v 0.149398 2.000000 -0.615617
v 0.221270 2.000000 -0.555419
v 0.284266 2.000000 -0.474407
v 0.335966 2.000000 -0.375693
v 0.374382 2.000000 -0.263072
v 0.398039 2.000000 -0.140870
v 0.406027 2.000000 -0.013785
v 0.398039 2.000000 0.113300
v 0.374382 2.000000 0.235502
v 0.335966 2.000000 0.348123
v 0.284267 2.000000 0.446837
v 0.221271 2.000000 0.527849
v 0.149399 2.000000 0.588047
v 0.071413 2.000000 0.625117
v -0.009689 2.000000 0.637634
v -0.090791 2.000000 0.625117
v -0.168776 2.000000 0.588047
v -0.240648 2.000000 0.527849
v -0.303644 2.000000 0.446838
v -0.355344 2.000000 0.348124
v -0.393760 2.000000 0.235503
v -0.417417 2.000000 0.113301
v -0.425404 2.000000 -0.013785
v -0.417417 2.000000 -0.140870
v -0.393760 2.000000 -0.263071
v -0.355344 2.000000 -0.375693
v -0.303644 2.000000 -0.474407
v -0.240648 2.000000 -0.555418
v -0.168776 2.000000 -0.615616
v -0.090791 2.000000 -0.652686
v -0.814741 1.000000 1.023851
v 0.814741 1.000000 1.023851
v -0.814258 1.043314 1.017355
v 0.814258 1.043314 1.017355
v -0.812416 1.000828 -1.033195
v 0.812416 1.000828 -1.033195
v -0.815189 1.034442 -1.019364
v 0.815189 1.034442 -1.019364
v -1.000000 0.021201 0.978799
v -0.978845 0.000033 1.000000
v -0.997166 0.010605 0.989399
v -0.989422 0.002857 0.997160
v 0.978845 0.000033 1.000000
v 1.000000 0.021201 0.978799
v 0.989422 0.002857 0.997160
v 0.997166 0.010605 0.989399
v -0.978879 0.000041 -1.000001
v -1.000000 0.021201 -0.978799
v -0.989440 0.002861 -0.997160
v -0.997170 0.010606 -0.989399
v 1.000000 0.021201 -0.978799
v 0.978879 0.000041 -1.000001
v 0.997170 0.010606 -0.989399
v 0.989440 0.002861 -0.997160
v -0.978908 1.999936 1.000002
v -1.000042 1.978824 0.978829
v -0.989454 1.997127 0.997160
v -0.997180 1.989394 0.989403
v 1.000042 1.978824 0.978829
v 0.978908 1.999936 1.000002
v 0.997180 1.989394 0.989403
v 0.989454 1.997127 0.997160
v -1.000000 1.978799 -0.978799
v -0.978894 2.000000 -1.000000
v -0.997172 1.989399 -0.989399
v -0.989447 1.997160 -0.997160
v 1.000000 1.978799 -0.978799
v 0.978894 2.000000 -1.000000
v 0.997172 1.989399 -0.989399
v 0.989447 1.997160 -0.997160
v -0.075481 1.987000 -0.532076
v -0.138744 1.987000 -0.502004
v -0.197048 1.987000 -0.453170
v -0.248152 1.987000 -0.387452
v -0.290092 1.987000 -0.307373
v -0.321256 1.987000 -0.216012
v -0.340447 1.987000 -0.116879
v -0.346927 1.987000 -0.013785
v -0.340447 1.987000 0.089310
v -0.321256 1.987000 0.188443
v -0.290092 1.987000 0.279804
v -0.248152 1.987000 0.359883
v -0.197048 1.987000 0.425601
v -0.138744 1.987000 0.474435
v -0.075481 1.987000 0.504507
v -0.009689 1.987000 0.514661
v 0.056103 1.987000 0.504507
v 0.119367 1.987000 0.474435
v 0.177671 1.987000 0.425601
v 0.228775 1.987000 0.359882
v 0.270714 1.987000 0.279803
v 0.301879 1.987000 0.188442
v 0.321069 1.987000 0.089310
v 0.327549 1.987000 -0.013785
v 0.321069 1.987000 -0.116880
v 0.301878 1.987000 -0.216012
v 0.270714 1.987000 -0.307373
v 0.228774 1.987000 -0.387452
v 0.177670 1.987000 -0.453171
v 0.119366 1.987000 -0.502004
v 0.056103 1.987000 -0.532076
v -0.009689 1.987000 -0.542229
v -0.009689 1.987000 -0.665202
v 0.071413 1.987000 -0.652686
v 0.149398 1.987000 -0.615617
v 0.221270 1.987000 -0.555419
v 0.284266 1.987000 -0.474407
v 0.335966 1.987000 -0.375693
v 0.374382 1.987000 -0.263072
v 0.398039 1.987000 -0.140870
v 0.406027 1.987000 -0.013786
v 0.398039 1.987000 0.113300
v 0.374382 1.987000 0.235501
v 0.335966 1.987000 0.348123
v 0.284267 1.987000 0.446837
v 0.221271 1.987000 0.527849
v 0.149399 1.987000 0.588047
v 0.071413 1.987000 0.625116
v -0.009689 1.987000 0.637633
v -0.090791 1.987000 0.625116
v -0.168776 1.987000 0.588047
v -0.240648 1.987000 0.527849
v -0.303644 1.987000 0.446837
v -0.355344 1.987000 0.348123
v -0.393760 1.987000 0.235502
v -0.417417 1.987000 0.113301
v -0.425404 1.987000 -0.013785
v -0.417417 1.987000 -0.140870
v -0.393760 1.987000 -0.263071
v -0.355344 1.987000 -0.375693
v -0.303644 1.987000 -0.474407
v -0.240648 1.987000 -0.555418
v -0.168776 1.987000 -0.615616
v -0.090791 1.987000 -0.652686
v -0.814741 0.999690 1.010855
v 0.814741 0.999690 1.010855
v -0.814258 1.043530 1.004357
v 0.814258 1.043530 1.004357
v -0.812416 1.000396 -1.020202
v 0.812416 1.000396 -1.020202
v -0.815189 1.034685 -1.006366
v 0.815189 1.034685 -1.006366
v -0.987127 0.022478 0.977514
v -0.977132 0.007230 0.989311
v -0.985695 0.014932 0.985074
v -0.982213 0.010510 0.989514
v 0.977132 0.007230 0.989311
v 0.987127 0.022478 0.977514
v 0.982213 0.010510 0.989514
v 0.985695 0.014932 0.985074
v -0.977167 0.007243 -0.989314
v -0.987126 0.022478 -0.977524
v -0.982229 0.010514 -0.989515
v -0.985698 0.014934 -0.985081
v 0.987126 0.022478 -0.977524
v 0.977167 0.007243 -0.989314
v 0.985698 0.014934 -0.985081
v 0.982229 0.010514 -0.989515
v -0.977194 1.992717 0.989327
v -0.987170 1.977541 0.977544
v -0.982241 1.989477 0.989516
v -0.985709 1.985067 0.985080
v 0.987170 1.977541 0.977544
v 0.977194 1.992717 0.989327
v 0.985709 1.985067 0.985080
v 0.982241 1.989477 0.989516
v -0.987126 1.977515 -0.977524
v -0.977181 1.992752 -0.989345
v -0.985699 1.985074 -0.985080
v -0.982233 1.989510 -0.989514
v 0.987126 1.977515 -0.977524
v 0.977181 1.992752 -0.989345
v 0.985699 1.985074 -0.985080
v 0.982233 1.989510 -0.989514
vn -0.0000 -0.0166 0.9999
vn -0.0000 0.0238 0.9997
vn -0.0000 -0.0187 -0.9998
vn -1.0000 -0.0000 -0.0000
vn -0.0000 -0.0000 -1.0000
vn 1.0000 -0.0000 -0.0000
vn -0.0000 1.0000 -0.0000
vn -0.0000 0.0332 -0.9994
vn -0.0000 -0.0000 1.0000
vn -0.0000 1.0000 0.0001
vn -0.2580 -0.9662 -0.0000
vn -0.7075 -0.7067 -0.0000
vn -0.9661 -0.2582 -0.0000
vn 0.2580 -0.9662 -0.0000
vn 0.7075 -0.7067 -0.0000
vn 0.9661 -0.2582 -0.0000
vn -0.9657 0.2596 -0.0000
vn -0.7081 0.7061 -0.0000
vn -0.2586 0.9660 -0.0000
vn 0.9657 0.2596 -0.0000
vn 0.7081 0.7061 -0.0000
vn 0.2586 0.9660 -0.0000
vn -0.9662 -0.0000 -0.2578
vn -0.7086 -0.0000 -0.7056
vn -0.2598 -0.0000 -0.9657
vn 0.9662 -0.0000 -0.2578
vn 0.7086 -0.0000 -0.7056
vn 0.2598 -0.0000 -0.9657
vn 0.9657 -0.0000 0.2598
vn 0.7082 -0.0000 0.7060
vn 0.2597 -0.0000 0.9657
vn -0.9657 -0.0000 0.2598
vn -0.7082 -0.0000 0.7060
vn -0.2597 -0.0000 0.9657
vn -0.0000 -1.0000 -0.0000
vn -0.0000 0.0145 -0.9999
vn -0.0000 -0.0217 -0.9998
vn -0.0000 0.0166 0.9999
vn -0.0000 -0.0311 0.9995
vn -0.0000 -1.0000 -0.0086
vn -0.0000 -1.0000 0.0038
vn 0.5426 0.8400 -0.0000
vn 0.7862 0.6180 -0.0000
vn 0.9825 0.1862 -0.0000
vn -0.5426 0.8400 -0.0000
vn -0.7862 0.6180 -0.0000
vn -0.9825 0.1862 -0.0000
vn 0.9822 -0.1880 -0.0000
vn 0.7870 -0.6169 -0.0000
vn 0.5401 -0.8416 -0.0000
vn -0.9822 -0.1880 -0.0000
vn -0.7870 -0.6169 -0.0000
vn -0.5401 -0.8416 -0.0000
vn 0.9826 -0.0000 0.1857
vn 0.7878 -0.0000 0.6159
vn -0.0366 -0.0000 0.9993
vn -0.9826 -0.0000 0.1857
vn -0.7878 -0.0000 0.6159
vn 0.0366 -0.0000 0.9993
vn -0.9821 -0.0000 -0.1882
vn -0.7873 -0.0000 -0.6166
vn 0.0388 -0.0000 -0.9992
vn 0.9821 -0.0000 -0.1882
vn 0.7873 -0.0000 -0.6165
vn -0.0388 -0.0000 -0.9992
vn 0.1525 -0.0000 0.9883
vn 0.6421 -0.0000 0.7666
vn 0.7894 -0.0000 0.6139
vn 0.8859 -0.0000 0.4640
vn 0.9465 -0.0000 0.3228
vn 0.9818 -0.0000 0.1901
vn 0.9980 -0.0000 0.0627
vn 0.9980 -0.0000 -0.0627
vn 0.9818 -0.0000 -0.1901
vn 0.9465 -0.0000 -0.3228
vn 0.8859 -0.0000 -0.4640
vn 0.7894 -0.0000 -0.6139
vn 0.6421 -0.0000 -0.7666
vn 0.4293 -0.0000 -0.9032
vn 0.1525 -0.0000 -0.9883
vn -0.1525 -0.0000 -0.9883
vn -0.4293 -0.0000 -0.9032
vn -0.6421 -0.0000 -0.7666
vn -0.7894 -0.0000 -0.6139
vn -0.8859 -0.0000 -0.4640
vn -0.9465 -0.0000 -0.3228
vn -0.9818 -0.0000 -0.1901
vn -0.9980 -0.0000 -0.0627
vn -0.9980 -0.0000 0.0627
vn -0.9818 -0.0000 0.1901
vn -0.9465 -0.0000 0.3228
vn -0.8859 -0.0000 0.4640
vn -0.7894 -0.0000 0.6139
vn -0.6421 -0.0000 0.7666
vn -0.4293 -0.0000 0.9032
vn -0.1525 -0.0000 0.9883
vn 0.4293 -0.0000 0.9032
vn -0.0000 -0.9997 0.0238
vn -0.0000 0.9999 0.0166
vn -0.0000 -0.9994 -0.0332
vn -0.0000 0.9998 -0.0187
vn 0.9875 0.1559 -0.0226
vn -0.9875 0.1559 -0.0226
vn -0.9874 0.1564 0.0222
vn 0.9874 0.1564 0.0222
vn -0.9866 -0.1621 -0.0199
vn 0.9866 -0.1621 -0.0199
vn -0.9862 -0.1646 0.0180
vn 0.9862 -0.1646 0.0180
vt 0.493129 0.592651
vt 0.487370 0.587414
vt 0.482062 0.578911
vt 0.477410 0.567467
vt 0.473592 0.553523
vt 0.470756 0.537614
vt 0.469009 0.520352
vt 0.468419 0.502400
vt 0.469009 0.484448
vt 0.470756 0.467186
vt 0.473592 0.451278
vt 0.477410 0.437334
vt 0.482062 0.425890
vt 0.487370 0.417386
vt 0.493129 0.412150
vt 0.499118 0.410382
vt 0.505107 0.412150
vt 0.510866 0.417387
vt 0.516174 0.425890
vt 0.520826 0.437334
vt 0.524644 0.451278
vt 0.527480 0.467187
vt 0.529227 0.484449
vt 0.529817 0.502401
vt 0.529227 0.520352
vt 0.527480 0.537614
vt 0.524644 0.553523
vt 0.520826 0.567467
vt 0.516174 0.578911
vt 0.510866 0.587414
vt 0.505107 0.592651
vt 0.499118 0.594419
vt 0.499118 0.615832
vt 0.499118 0.267571
vt 0.506501 0.613653
vt 0.506501 0.265392
vt 0.513600 0.607198
vt 0.513600 0.258937
vt 0.520143 0.596716
vt 0.520143 0.248454
vt 0.525877 0.582609
vt 0.525877 0.234348
vt 0.530584 0.565420
vt 0.530584 0.217159
vt 0.534081 0.545809
vt 0.534081 0.197548
vt 0.536234 0.524530
vt 0.536234 0.176269
vt 0.536961 0.502401
vt 0.536961 0.154139
vt 0.536961 0.850662
vt 0.536234 0.480271
vt 0.536234 0.828532
vt 0.534081 0.458992
vt 0.534081 0.807253
vt 0.530584 0.439381
vt 0.530584 0.787642
vt 0.525877 0.422192
vt 0.525877 0.770453
vt 0.520143 0.408085
vt 0.520143 0.756346
vt 0.513600 0.397603
vt 0.513600 0.745864
vt 0.506501 0.391148
vt 0.506501 0.739409
vt 0.499118 0.388969
vt 0.499118 0.737230
vt 0.491735 0.391148
vt 0.491735 0.739409
vt 0.484636 0.397603
vt 0.484636 0.745864
vt 0.478093 0.408085
vt 0.478093 0.756346
vt 0.472359 0.422192
vt 0.472359 0.770453
vt 0.467652 0.439381
vt 0.467652 0.787642
vt 0.464155 0.458992
vt 0.464155 0.807253
vt 0.462002 0.480271
vt 0.462002 0.828532
vt 0.461275 0.502400
vt 0.461275 0.154139
vt 0.461275 0.850661
vt 0.462002 0.524530
vt 0.462002 0.176269
vt 0.464155 0.545809
vt 0.464155 0.197548
vt 0.467652 0.565420
vt 0.467652 0.217159
vt 0.472359 0.582609
vt 0.472359 0.234348
vt 0.478093 0.596715
vt 0.478093 0.248454
vt 0.484636 0.607198
vt 0.484636 0.258937
vt 0.491735 0.613653
vt 0.491735 0.265392
vt 0.045696 0.494600
vt 0.470494 0.494600
vt 0.045822 0.513579
vt 0.470368 0.513579
vt 0.048393 0.494521
vt 0.473500 0.494521
vt 0.058661 0.482346
vt 0.456121 0.482346
vt 1.002243 0.000460
vt 0.009608 0.022042
vt 0.411850 -0.002482
vt 0.002915 -0.007706
vt 0.410894 -0.022392
vt 0.411779 -0.008069
vt 0.548144 0.110503
vt 0.002915 -0.006678
vt 0.006925 0.016913
vt 0.408982 -0.007965
vt 0.410625 -0.008052
vt 0.409931 -0.021897
vt 0.004961 0.013162
vt 0.408536 -0.012041
vt 0.409052 -0.006676
vt 0.513275 -0.007706
vt 0.589106 0.674130
vt 0.629114 -0.008900
vt 0.999333 0.110503
vt 0.513275 -0.006678
vt 0.486802 0.001736
vt 0.004814 0.009234
vt 0.004814 0.002432
vt 0.590069 0.674625
vt 0.000000 0.000001
vt 0.408612 -0.002656
vt 0.631894 -0.007479
vt 0.002035 0.003900
vt 0.002035 -0.002901
vt 0.410549 0.001044
vt 0.001285 -0.006456
vt 0.410891 0.325870
vt 0.274052 -0.005789
vt 0.548136 0.992219
vt 0.018756 -0.000020
vt 0.477076 0.000460
vt 0.505000 0.022042
vt 0.777841 -0.005803
vt 0.409930 0.325375
vt 0.509647 0.013164
vt 0.782704 -0.004485
vt 0.271333 -0.004400
vt 0.507683 0.016913
vt 0.780843 -0.011543
vt 0.780706 -0.000672
vt 0.999954 0.001733
vt 0.517966 0.009231
vt 0.517937 -0.000817
vt 0.513496 -0.006456
vt 0.589109 1.022392
vt 0.588049 -0.017723
vt 0.999342 0.992219
vt 0.496026 -0.000020
vt 0.520744 0.003898
vt 0.520773 -0.006259
vt 0.589356 -0.005975
vt 0.590070 1.021897
vt 0.522778 0.000000
vt 0.591484 -0.010037
vt 0.591129 -0.016150
vt 0.002898 0.989592
vt 0.410888 0.674130
vt 0.410888 0.325869
vt 0.411763 0.978295
vt 0.002898 0.993241
vt 1.002251 1.005043
vt 0.410896 0.496313
vt 0.411842 1.010514
vt 0.409227 0.499500
vt 0.409928 0.326364
vt 0.408536 1.014659
vt 0.409044 0.976910
vt 0.409933 0.498153
vt 0.408981 1.015983
vt 0.410623 1.010678
vt 0.486796 0.987181
vt 0.004808 0.994679
vt 0.004808 0.987878
vt 0.513292 0.989592
vt 0.589112 0.674130
vt 0.589112 0.325869
vt 0.629130 0.996687
vt 0.513292 0.993241
vt 0.002035 1.000000
vt 0.409933 0.498153
vt 0.002035 0.993199
vt 0.410548 0.945947
vt 0.409227 0.499500
vt 0.590072 0.326364
vt 0.408611 0.949639
vt 0.631903 0.995275
vt 0.477076 1.005029
vt 0.589102 0.496308
vt 0.777841 1.054794
vt 0.001282 0.994450
vt 0.410890 0.325870
vt 0.410890 1.022392
vt 0.410890 0.674131
vt 0.274048 0.978968
vt 0.004837 0.994569
vt 0.590067 0.498154
vt 0.780843 1.060538
vt 0.780706 0.973664
vt 0.590773 0.499505
vt 0.409929 0.673636
vt 0.782704 0.977485
vt 0.271332 0.977570
vt 0.999955 0.987165
vt 0.517967 0.994663
vt 0.517939 1.004711
vt 0.513499 0.994450
vt 0.589110 0.325870
vt 0.589110 1.022392
vt 0.589110 0.674131
vt 0.588053 1.097949
vt 0.517055 0.994569
vt 0.520746 1.000000
vt 0.590067 0.498154
vt 0.520774 1.010157
vt 0.589356 1.031780
vt 0.590773 0.499505
vt 0.590071 0.673636
vt 0.591483 1.035850
vt 0.591131 1.096365
vt 0.493129 0.592651
vt 0.487370 0.587414
vt 0.482062 0.578911
vt 0.477410 0.567467
vt 0.473592 0.553523
vt 0.470756 0.537614
vt 0.469009 0.520352
vt 0.468419 0.502400
vt 0.469009 0.484448
vt 0.470756 0.467186
vt 0.473592 0.451278
vt 0.477410 0.437334
vt 0.482062 0.425890
vt 0.487370 0.417386
vt 0.493129 0.412150
vt 0.499118 0.410382
vt 0.505107 0.412150
vt 0.510866 0.417387
vt 0.516174 0.425890
vt 0.520826 0.437334
vt 0.524644 0.451278
vt 0.527480 0.467187
vt 0.529227 0.484449
vt 0.529817 0.502401
vt 0.529227 0.520352
vt 0.527480 0.537614
vt 0.524644 0.553523
vt 0.520826 0.567467
vt 0.516174 0.578911
vt 0.510866 0.587414
vt 0.505107 0.592651
vt 0.499118 0.594419
vt 0.499118 0.615832
vt 0.499118 0.267571
vt 0.506501 0.613653
vt 0.506501 0.265392
vt 0.513600 0.607198
vt 0.513600 0.258937
vt 0.520143 0.596716
vt 0.520143 0.248454
vt 0.525877 0.582609
vt 0.525877 0.234348
vt 0.530584 0.565420
vt 0.530584 0.217159
vt 0.534081 0.545809
vt 0.534081 0.197548
vt 0.536234 0.524530
vt 0.536234 0.176269
vt 0.536961 0.502401
vt 0.536961 0.154139
vt 0.536961 0.850662
vt 0.536234 0.480271
vt 0.536234 0.828532
vt 0.534081 0.458992
vt 0.534081 0.807253
vt 0.530584 0.439381
vt 0.530584 0.787642
vt 0.525877 0.422192
vt 0.525877 0.770453
vt 0.520143 0.408085
vt 0.520143 0.756346
vt 0.513600 0.397603
vt 0.513600 0.745864
vt 0.506501 0.391148
vt 0.506501 0.739409
vt 0.499118 0.388969
vt 0.499118 0.737230
vt 0.491735 0.391148
vt 0.491735 0.739409
vt 0.484636 0.397603
vt 0.484636 0.745864
vt 0.478093 0.408085
vt 0.478093 0.756346
vt 0.472359 0.422192
vt 0.472359 0.770453
vt 0.467652 0.439381
vt 0.467652 0.787642
vt 0.464155 0.458992
vt 0.464155 0.807253
vt 0.462002 0.480271
vt 0.462002 0.828532
vt 0.461275 0.502400
vt 0.461275 0.154139
vt 0.461275 0.850661
vt 0.462002 0.524530
vt 0.462002 0.176269
vt 0.464155 0.545809
vt 0.464155 0.197548
vt 0.467652 0.565420
vt 0.467652 0.217159
vt 0.472359 0.582609
vt 0.472359 0.234348
vt 0.478093 0.596715
vt 0.478093 0.248454
vt 0.484636 0.607198
vt 0.484636 0.258937
vt 0.491735 0.613653
vt 0.491735 0.265392
vt 0.045696 0.494600
vt 0.470494 0.494600
vt 0.045822 0.513579
vt 0.470368 0.513579
vt 0.048393 0.494521
vt 0.473500 0.494521
vt 0.058661 0.482346
vt 0.456121 0.482346
vt 1.002243 0.000460
vt 0.009608 0.022042
vt 0.411850 -0.002482
vt 0.002915 -0.007706
vt 0.410894 -0.022392
vt 0.411779 -0.008069
vt 0.548144 0.110503
vt 0.002915 -0.006678
vt 0.006925 0.016913
vt 0.408982 -0.007965
vt 0.410625 -0.008052
vt 0.409931 -0.021897
vt 0.004961 0.013162
vt 0.408536 -0.012041
vt 0.409052 -0.006676
vt 0.513275 -0.007706
vt 0.589106 0.674130
vt 0.629114 -0.008900
vt 0.999333 0.110503
vt 0.513275 -0.006678
vt 0.486802 0.001736
vt 0.004814 0.009234
vt 0.004814 0.002432
vt 0.590069 0.674625
vt 0.000000 0.000001
vt 0.408612 -0.002656
vt 0.631894 -0.007479
vt 0.002035 0.003900
vt 0.002035 -0.002901
vt 0.410549 0.001044
vt 0.001285 -0.006456
vt 0.410891 0.325870
vt 0.274052 -0.005789
vt 0.548136 0.992219
vt 0.018756 -0.000020
vt 0.477076 0.000460
vt 0.505000 0.022042
vt 0.777841 -0.005803
vt 0.409930 0.325375
vt 0.509647 0.013164
vt 0.782704 -0.004485
vt 0.271333 -0.004400
vt 0.507683 0.016913
vt 0.780843 -0.011543
vt 0.780706 -0.000672
vt 0.999954 0.001733
vt 0.517966 0.009231
vt 0.517937 -0.000817
vt 0.513496 -0.006456
vt 0.589109 1.022392
vt 0.588049 -0.017723
vt 0.999342 0.992219
vt 0.496026 -0.000020
vt 0.520744 0.003898
vt 0.520773 -0.006259
vt 0.589356 -0.005975
vt 0.590070 1.021897
vt 0.522778 0.000000
vt 0.591484 -0.010037
vt 0.591129 -0.016150
vt 0.002898 0.989592
vt 0.410888 0.674130
vt 0.410888 0.325869
vt 0.411763 0.978295
vt 0.002898 0.993241
vt 1.002251 1.005043
vt 0.410896 0.496313
vt 0.411842 1.010514
vt 0.409227 0.499500
vt 0.409928 0.326364
vt 0.408536 1.014659
vt 0.409044 0.976910
vt 0.409933 0.498153
vt 0.408981 1.015983
vt 0.410623 1.010678
vt 0.486796 0.987181
vt 0.004808 0.994679
vt 0.004808 0.987878
vt 0.513292 0.989592
vt 0.589112 0.674130
vt 0.589112 0.325869
vt 0.629130 0.996687
vt 0.513292 0.993241
vt 0.002035 1.000000
vt 0.409933 0.498153
vt 0.002035 0.993199
vt 0.410548 0.945947
vt 0.409227 0.499500
vt 0.590072 0.326364
vt 0.408611 0.949639
vt 0.631903 0.995275
vt 0.477076 1.005029
vt 0.589102 0.496308
vt 0.777841 1.054794
vt 0.001282 0.994450
vt 0.410890 0.325870
vt 0.410890 1.022392
vt 0.410890 0.674131
vt 0.274048 0.978968
vt 0.004837 0.994569
vt 0.590067 0.498154
vt 0.780843 1.060538
vt 0.780706 0.973664
vt 0.590773 0.499505
vt 0.409929 0.673636
vt 0.782704 0.977485
vt 0.271332 0.977570
vt 0.999955 0.987165
vt 0.517967 0.994663
vt 0.517939 1.004711
vt 0.513499 0.994450
vt 0.589110 0.325870
vt 0.589110 1.022392
vt 0.589110 0.674131
vt 0.588053 1.097949
vt 0.517055 0.994569
vt 0.520746 1.000000
vt 0.590067 0.498154
vt 0.520774 1.010157
vt 0.589356 1.031780
vt 0.590773 0.499505
vt 0.590071 0.673636
vt 0.591483 1.035850
vt 0.591131 1.096365
s 0
usemtl Material.001
f 46/60/7 45/58/7 20/20/7 19/19/7
f 60/89/7 59/87/7 6/6/7 5/5/7
f 47/62/7 46/60/7 19/19/7 18/18/7
f 34/35/7 33/33/7 32/32/7 31/31/7
f 61/91/7 60/89/7 5/5/7 4/4/7
f 48/64/7 47/62/7 18/18/7 17/17/7
f 35/37/7 34/35/7 31/31/7 30/30/7
f 62/93/7 61/91/7 4/4/7 3/3/7
f 49/66/7 48/64/7 17/17/7 16/16/7
f 36/39/7 35/37/7 30/30/7 29/29/7
f 63/95/7 62/93/7 3/3/7 2/2/7
f 50/68/7 49/66/7 16/16/7 15/15/7
f 37/41/7 36/39/7 29/29/7 28/28/7
f 64/97/7 63/95/7 2/2/7 1/1/7
f 51/70/7 50/68/7 15/15/7 14/14/7
f 38/43/7 37/41/7 28/28/7 27/27/7
f 33/33/7 64/97/7 1/1/7 32/32/7
f 52/72/7 51/70/7 14/14/7 13/13/7
f 39/45/7 38/43/7 27/27/7 26/26/7
f 53/74/7 52/72/7 13/13/7 12/12/7
f 40/47/7 39/45/7 26/26/7 25/25/7
f 54/76/7 53/74/7 12/12/7 11/11/7
f 41/49/7 40/47/7 25/25/7 24/24/7
f 55/78/7 54/76/7 11/11/7 10/10/7
f 42/52/7 41/49/7 24/24/7 23/23/7
f 56/80/7 55/78/7 10/10/7 9/9/7
f 43/54/7 42/52/7 23/23/7 22/22/7
f 57/82/7 56/80/7 9/9/7 8/8/7
f 44/56/7 43/54/7 22/22/7 21/21/7
f 58/85/7 57/82/7 8/8/7 7/7/7
f 45/58/7 44/56/7 21/21/7 20/20/7
f 59/87/7 58/85/7 7/7/7 6/6/7
f 150/290/35 123/249/35 124/250/35 149/288/35
f 164/319/35 109/235/35 110/236/35 163/317/35
f 151/292/35 122/248/35 123/249/35 150/290/35
f 138/265/35 135/261/35 136/262/35 137/263/35
f 165/321/35 108/234/35 109/235/35 164/319/35
f 152/294/35 121/247/35 122/248/35 151/292/35
f 139/267/35 134/260/35 135/261/35 138/265/35
f 166/323/35 107/233/35 108/234/35 165/321/35
f 153/296/35 120/246/35 121/247/35 152/294/35
f 140/269/35 133/259/35 134/260/35 139/267/35
f 167/325/35 106/232/35 107/233/35 166/323/35
f 154/298/35 119/245/35 120/246/35 153/296/35
f 141/271/35 132/258/35 133/259/35 140/269/35
f 168/327/35 105/231/35 106/232/35 167/325/35
f 155/300/35 118/244/35 119/245/35 154/298/35
f 142/273/35 131/257/35 132/258/35 141/271/35
f 137/263/35 136/262/35 105/231/35 168/327/35
f 156/302/35 117/243/35 118/244/35 155/300/35
f 143/275/35 130/256/35 131/257/35 142/273/35
f 157/304/35 116/242/35 117/243/35 156/302/35
f 144/277/35 129/255/35 130/256/35 143/275/35
f 158/306/35 115/241/35 116/242/35 157/304/35
f 145/279/35 128/254/35 129/255/35 144/277/35
f 159/308/35 114/240/35 115/241/35 158/306/35
f 146/282/35 127/253/35 128/254/35 145/279/35
f 160/310/35 113/239/35 114/240/35 159/308/35
f 147/284/35 126/252/35 127/253/35 146/282/35
f 161/312/35 112/238/35 113/239/35 160/310/35
f 148/286/35 125/251/35 126/252/35 147/284/35
f 162/315/35 111/237/35 112/238/35 161/312/35
f 149/288/35 124/250/35 125/251/35 148/286/35
f 163/317/35 110/236/35 111/237/35 162/315/35
f 32/32/66 1/1/66 105/231/66 136/262/66
f 2/2/67 3/3/67 107/233/67 106/232/67
f 3/3/68 4/4/68 108/234/68 107/233/68
f 4/4/69 5/5/69 109/235/69 108/234/69
f 5/5/70 6/6/70 110/236/70 109/235/70
f 6/6/71 7/7/71 111/237/71 110/236/71
f 7/7/72 8/8/72 112/238/72 111/237/72
f 8/8/73 9/9/73 113/239/73 112/238/73
f 9/9/74 10/10/74 114/240/74 113/239/74
f 10/10/75 11/11/75 115/241/75 114/240/75
f 11/11/76 12/12/76 116/242/76 115/241/76
f 12/12/77 13/13/77 117/243/77 116/242/77
f 13/13/78 14/14/78 118/244/78 117/243/78
f 14/14/79 15/15/79 119/245/79 118/244/79
f 15/15/80 16/16/80 120/246/80 119/245/80
f 16/16/81 17/17/81 121/247/81 120/246/81
f 17/17/82 18/18/82 122/248/82 121/247/82
f 18/18/83 19/19/83 123/249/83 122/248/83
f 19/19/84 20/20/84 124/250/84 123/249/84
f 20/20/85 21/21/85 125/251/85 124/250/85
f 21/21/86 22/22/86 126/252/86 125/251/86
f 22/22/87 23/23/87 127/253/87 126/252/87
f 23/23/88 24/24/88 128/254/88 127/253/88
f 24/24/89 25/25/89 129/255/89 128/254/89
f 25/25/90 26/26/90 130/256/90 129/255/90
f 26/26/91 27/27/91 131/257/91 130/256/91
f 27/27/92 28/28/92 132/258/92 131/257/92
f 28/28/93 29/29/93 133/259/93 132/258/93
f 29/29/94 30/30/94 134/260/94 133/259/94
f 30/30/95 31/31/95 135/261/95 134/260/95
f 31/31/96 32/32/96 136/262/96 135/261/96
f 1/1/97 2/2/97 106/232/97 105/231/97
usemtl Material.012
f 77/126/1 68/102/1 67/101/1 74/114/1
f 89/171/2 65/99/2 66/100/2 94/189/2
f 81/141/3 71/105/3 72/106/3 86/159/3
f 82/142/4 73/107/4 90/172/4 97/198/4
f 86/155/5 81/137/5 98/201/5 102/217/5
f 78/127/6 85/152/6 101/214/6 93/182/6
f 98/206/8 102/222/8 70/104/8 69/103/8
f 74/110/9 77/122/9 94/185/9 89/167/9
f 98/202/7 57/83/7 58/86/7 59/88/7 60/90/7 61/92/7 62/94/7 63/96/7 64/98/7 33/34/7 34/36/7 35/38/7 36/40/7 37/42/7 38/44/7 39/46/7 40/48/7 41/50/7 102/218/7
f 89/168/10 94/186/10 102/219/10 41/51/10 42/53/10 43/55/10 44/57/10 45/59/10 46/61/10 47/63/10 48/65/10 49/67/10 50/69/10 51/71/10 52/73/10 53/75/10 54/77/10 55/79/10 56/81/10 57/84/10 98/203/10
f 81/138/11 74/111/11 76/118/11 83/145/11
f 83/146/12 76/119/12 75/115/12 84/149/12
f 84/149/13 75/115/13 73/108/13 82/143/13
f 77/123/14 86/156/14 88/163/14 79/130/14
f 79/131/15 88/164/15 87/160/15 80/134/15
f 80/134/16 87/160/16 85/153/16 78/128/16
f 97/199/17 90/173/17 92/179/17 99/207/17
f 99/207/18 92/179/18 91/175/18 100/210/18
f 100/211/19 91/176/19 89/169/19 98/204/19
f 93/183/20 101/215/20 103/223/20 95/190/20
f 95/191/21 103/224/21 104/227/21 96/194/21
f 96/195/22 104/228/22 102/220/22 94/187/22
f 82/144/23 97/200/23 99/208/23 84/150/23
f 84/151/24 99/209/24 100/212/24 83/147/24
f 83/148/25 100/213/25 98/205/25 81/139/25
f 101/216/26 85/154/26 87/161/26 103/225/26
f 103/226/27 87/162/27 88/165/27 104/229/27
f 104/230/28 88/166/28 86/157/28 102/221/28
f 78/129/29 93/184/29 95/192/29 80/135/29
f 80/136/30 95/193/30 96/196/30 79/132/30
f 79/133/31 96/197/31 94/188/31 77/124/31
f 90/174/32 73/109/32 75/116/32 92/180/32
f 92/181/33 75/117/33 76/120/33 91/177/33
f 91/178/34 76/121/34 74/112/34 89/170/34
f 74/113/35 81/140/35 86/158/35 77/125/35
f 181/356/36 178/344/36 171/331/36 172/332/36
f 193/401/37 198/419/37 170/330/37 169/329/37
f 185/371/38 190/389/38 176/336/38 175/335/38
f 186/372/6 201/428/6 194/402/6 177/337/6
f 190/385/9 206/447/9 202/431/9 185/367/9
f 182/357/4 197/412/4 205/444/4 189/382/4
f 202/436/39 173/333/39 174/334/39 206/452/39
f 178/340/5 193/397/5 198/415/5 181/352/5
f 202/432/40 206/448/40 145/280/40 144/278/40 143/276/40 142/274/40 141/272/40 140/270/40 139/268/40 138/266/40 137/264/40 168/328/40 167/326/40 166/324/40 165/322/40 164/320/40 163/318/40 162/316/40 161/313/40
f 193/398/41 202/433/41 161/314/41 160/311/41 159/309/41 158/307/41 157/305/41 156/303/41 155/301/41 154/299/41 153/297/41 152/295/41 151/293/41 150/291/41 149/289/41 148/287/41 147/285/41 146/283/41 145/281/41 206/449/41 198/416/41
f 185/368/42 187/375/42 180/348/42 178/341/42
f 187/376/43 188/379/43 179/345/43 180/349/43
f 188/379/44 186/373/44 177/338/44 179/345/44
f 181/353/45 183/360/45 192/393/45 190/386/45
f 183/361/46 184/364/46 191/390/46 192/394/46
f 184/364/47 182/358/47 189/383/47 191/390/47
f 201/429/48 203/437/48 196/409/48 194/403/48
f 203/437/49 204/440/49 195/405/49 196/409/49
f 204/441/50 202/434/50 193/399/50 195/406/50
f 197/413/51 199/420/51 207/453/51 205/445/51
f 199/421/52 200/424/52 208/457/52 207/454/52
f 200/425/53 198/417/53 206/450/53 208/458/53
f 186/374/54 188/380/54 203/438/54 201/430/54
f 188/381/55 187/377/55 204/442/55 203/439/55
f 187/378/56 185/369/56 202/435/56 204/443/56
f 205/446/57 207/455/57 191/391/57 189/384/57
f 207/456/58 208/459/58 192/395/58 191/392/58
f 208/460/59 206/451/59 190/387/59 192/396/59
f 182/359/60 184/365/60 199/422/60 197/414/60
f 184/366/61 183/362/61 200/426/61 199/423/61
f 183/363/62 181/354/62 198/418/62 200/427/62
f 194/404/63 196/410/63 179/346/63 177/339/63
f 196/411/64 195/407/64 180/350/64 179/347/64
f 195/408/65 193/400/65 178/342/65 180/351/65
f 178/343/7 181/355/7 190/388/7 185/370/7
f 66/100/98 65/99/98 169/329/98 170/330/98
f 67/101/99 68/102/99 172/332/99 171/331/99
f 69/103/100 70/104/100 174/334/100 173/333/100
f 72/106/101 71/105/101 175/335/101 176/336/101
f 68/102/102 77/126/102 181/356/102 172/332/102
f 74/114/103 67/101/103 171/331/103 178/344/103
f 71/105/104 81/141/104 185/371/104 175/335/104
f 86/159/105 72/106/105 176/336/105 190/389/105
f 65/99/106 89/171/106 193/401/106 169/329/106
f 94/189/107 66/100/107 170/330/107 198/419/107
f 98/206/108 69/103/108 173/333/108 202/436/108
f 70/104/109 102/222/109 206/452/109 174/334/109
